<svg width="66" height="54" viewBox="0 0 66 54" fill="none" xmlns="http://www.w3.org/2000/svg">
<rect width="66" height="54" fill="#1E1E1E"/>
<g id="Landing Page - Desktop">
<rect width="1440" height="4798" transform="translate(-81.4583 -13.75)" fill="white"/>
<g id="header">
<rect x="-80.9583" y="-13.25" width="1439" height="79" fill="white"/>
<rect x="-80.9583" y="-13.25" width="1439" height="79" stroke="#E5E7EB"/>
<g id="logo-group">
<g id="circle-x">
<g id="chito_ryu_logo" clip-path="url(#clip0_2_6)">
<path id="Vector" d="M41.9387 15.4051C42.3242 15.3706 42.7097 15.3129 43.0952 15.3088C43.4712 15.3035 43.5664 15.1393 43.4772 14.7753C42.9973 14.8141 42.463 15.1678 42.0548 14.5085C41.5129 16.1643 40.6615 17.4585 39.0388 18.1814C39.0502 18.0988 39.0442 18.0584 39.0616 18.0368C40.2085 16.6229 40.6063 14.9492 40.788 13.2013C40.8281 12.8063 40.8325 12.4079 40.8571 12.011C40.8763 11.6909 40.823 11.4077 40.4619 11.271C40.4593 11.2341 40.4575 11.1962 40.4549 11.1583C40.6962 11.0956 40.9786 10.9199 41.1717 10.9897C41.9401 11.2642 42.6691 11.013 43.4113 10.9226C43.5766 10.9027 43.74 10.8624 43.9148 10.8297C43.6981 10.5018 43.4969 10.1972 43.2959 9.89256C43.3291 9.86244 43.3624 9.83141 43.3947 9.80037C43.9445 9.89165 44.5006 9.95782 45.0391 10.0895C45.164 10.1205 45.2305 10.3777 45.3249 10.5301C45.3003 10.5627 45.276 10.5956 45.2505 10.6282C45.4489 10.6024 45.6543 10.599 45.8448 10.5465C46.4656 10.3754 46.9454 10.6282 47.3747 11.0232C47.4526 11.0937 47.5347 11.2589 47.5006 11.3253C47.4533 11.4191 47.3047 11.5079 47.192 11.5182C46.5337 11.58 45.8747 11.6163 45.2155 11.6644C45.0887 11.6738 44.9637 11.6989 44.8142 11.7194C44.9568 11.8949 45.066 12.03 45.1883 12.1815C45.1858 12.1815 45.2129 12.1945 45.2329 12.1874C45.6612 12.0498 46.0843 11.9421 46.4672 12.3011C46.7785 12.592 47.0931 12.8802 47.4095 13.1643C47.4786 13.2264 47.5634 13.2718 47.6429 13.3208C47.9208 13.4938 48.2085 13.6522 48.4725 13.8432C48.553 13.9016 48.6315 14.0807 48.5975 14.1453C48.5476 14.2375 48.3981 14.3157 48.2827 14.3285C47.9067 14.3689 47.5256 14.3673 47.148 14.4059C47.0353 14.417 46.8525 14.4894 46.8367 14.5624C46.7938 14.7561 46.8026 14.9686 46.8332 15.1673C46.8569 15.3188 46.9443 15.4608 47.0029 15.607C46.8701 15.6474 46.7398 15.7086 46.6026 15.725C45.4137 15.8669 44.2231 15.9995 43.0342 16.1399C42.6197 16.1889 42.3942 15.8946 42.1197 15.6837C42.0437 15.6244 41.9642 15.5701 41.8863 15.5133C41.903 15.4772 41.9204 15.4409 41.9378 15.4049M42.1983 13.9541C42.604 13.9109 42.9387 13.8655 43.2753 13.8438C43.5866 13.8249 43.6677 13.6768 43.6207 13.4849C43.167 13.348 42.7743 13.2302 42.3548 13.1036C42.3103 13.3489 42.2611 13.6147 42.1983 13.9538M42.4484 12.6785C42.7762 12.6354 43.0847 12.5813 43.397 12.5605C43.6601 12.5434 43.6802 12.3969 43.6575 12.1956C43.6313 11.959 43.4966 11.897 43.2781 11.9478C43.1478 11.978 43.0175 12.0124 42.8856 12.0252C42.5071 12.0612 42.3532 12.2532 42.4484 12.6783M44.8831 13.5835C45.1758 13.549 45.3647 13.5388 45.5474 13.5C45.6105 13.487 45.6978 13.4071 45.7029 13.3512C45.7083 13.2857 45.6427 13.1584 45.5979 13.1533C45.4241 13.1362 45.2326 13.1198 45.0752 13.1766C44.9932 13.2058 44.9686 13.3891 44.8828 13.5837M44.8583 14.982C45.3557 15.0078 45.4361 14.9407 45.4213 14.52C44.8418 14.4951 44.8015 14.5277 44.8583 14.982Z" fill="#E62432"/>
<path id="Vector_2" d="M38.1362 13.7348C38.0296 13.3311 37.8826 12.9843 37.8555 12.629C37.7795 11.6325 37.7505 10.6326 37.706 9.63425C37.699 9.45604 37.7051 9.27714 37.7051 9.03618C37.1745 9.09824 36.6953 9.15141 36.218 9.21257C35.9392 9.24862 35.6543 9.27189 35.3859 9.34948C34.9339 9.48023 34.5957 9.31685 34.3036 9.00606C34.0998 8.78837 33.9146 8.55265 33.6916 8.28932C35.0518 8.14899 36.3439 8.01573 37.6492 7.88133C37.6492 7.51554 37.6666 7.21525 37.6439 6.91838C37.6211 6.6336 37.476 6.49076 37.1483 6.56218C36.8013 6.63703 36.4445 6.66715 36.0922 6.71712L36.059 6.59755C36.1691 6.53982 36.2802 6.48232 36.3896 6.42276C36.977 6.10261 37.575 5.79798 38.1466 5.45388C38.4473 5.27316 38.4325 5.1958 38.2034 4.91353C38.6021 4.66572 38.9981 4.57011 39.4318 4.84211C39.6888 5.00298 39.979 5.11502 40.2248 5.28958C40.3349 5.36785 40.4406 5.55976 40.4188 5.67682C40.3986 5.78361 40.2185 5.90409 40.0857 5.94265C39.6652 6.06496 39.2343 6.15167 38.7115 6.27489C39.5052 6.61489 38.8242 7.21297 39.0945 7.699C39.5771 7.62074 40.0796 7.54658 40.5796 7.45713C41.2799 7.33071 42.4749 7.8633 42.836 8.47347C43.0231 8.78928 42.9076 9.03709 42.5335 9.04051C42.0449 9.04485 41.5562 8.99237 41.0676 8.97251C40.4941 8.94833 39.9206 8.94148 39.3471 8.90976C39.0613 8.89425 39.015 9.0234 38.9974 9.27555C38.916 10.4512 38.8235 11.6275 38.7027 12.8003C38.6687 13.1317 38.5901 13.4888 38.1362 13.735" fill="#E62432"/>
<path id="Vector_3" d="M51.9683 19.5752C52.4361 20.2025 51.6807 20.3437 51.5434 20.7971C51.9848 20.7618 52.3948 20.7291 52.8914 20.6897C52.7069 20.4608 52.575 20.2965 52.4194 20.1044C52.5043 20.0854 52.5863 20.0389 52.6494 20.0571C53.1712 20.2068 53.702 20.3403 54.2045 20.54C54.4947 20.6552 54.6137 20.9505 54.5673 21.2672C54.5297 21.5246 54.389 21.7172 54.1137 21.774C53.791 21.8411 53.5515 21.7224 53.3471 21.4685C53.2815 21.3868 53.1014 21.3274 52.9957 21.3523C52.1058 21.5622 51.2203 21.7945 50.3337 22.0202C50.275 22.0348 50.2034 22.0736 50.1598 22.0547C49.7847 21.892 49.7822 21.5212 49.6983 21.2044C49.6415 20.9858 49.6484 20.7638 49.9213 20.6641C50.2963 20.5265 50.3951 20.1822 50.5988 19.8518C49.8313 19.8956 49.5935 19.2786 49.0689 18.8674C49.3714 18.8459 49.5715 18.8391 49.7692 18.8158C50.9101 18.6807 52.0518 18.5429 53.1925 18.4037C53.7476 18.3366 54.1593 18.6189 54.524 18.9648C54.7284 19.1592 54.5965 19.3856 54.2757 19.4089C53.6044 19.4579 52.9329 19.494 52.2616 19.5371C52.189 19.5414 52.1174 19.556 51.9688 19.5759" fill="#E62432"/>
<path id="Vector_4" d="M41.6 16.4324C41.8246 16.3858 42.0694 16.2569 42.2706 16.3051C43.1482 16.5159 44.0094 16.356 44.8425 16.1631C45.7579 15.9514 46.4885 16.232 47.2115 16.7035C47.4623 16.8669 47.5061 16.9988 47.2771 17.237C46.9317 17.595 46.5367 17.9658 46.9396 18.5769C46.1494 18.6362 45.4352 18.6887 44.7201 18.7439C44.3668 18.7715 44.0138 18.7989 43.6605 18.8334C43.5933 18.8393 43.5214 18.866 43.4637 18.9005C43.0764 19.1328 42.7556 19.0209 42.6218 18.5899C42.5126 18.2337 42.4408 17.8645 42.3158 17.5133C42.1802 17.1348 42.0963 16.7062 41.6121 16.5625C41.6086 16.5186 41.6033 16.4764 41.5998 16.4326M43.9811 17.9911C44.3142 17.9455 44.6621 17.8759 45.0117 17.8576C45.3474 17.8405 45.4234 17.64 45.4111 17.3826C45.3972 17.0891 45.154 17.059 44.9294 17.0711C44.578 17.09 44.2266 17.1261 43.8777 17.1751C43.473 17.232 43.4582 17.2897 43.5017 17.7707C43.5342 18.1399 43.792 17.9496 43.9809 17.9909" fill="#E62432"/>
<path id="Vector_5" d="M52.5724 21.9232C52.9465 21.6919 53.708 21.7624 54.0026 22.1161C54.0761 22.2039 54.0787 22.3812 54.056 22.5076C53.9913 22.8604 53.8881 23.2072 53.8165 23.5593C53.7613 23.8279 53.737 24.0963 54.078 24.2211C54.4906 24.3717 54.9057 24.2745 55.0893 23.9671C55.1628 23.8441 55.2117 23.7047 55.2562 23.5687C55.2963 23.4439 55.3165 23.3122 55.3682 23.0842C55.4723 23.3485 55.5316 23.5335 55.6174 23.7047C55.6969 23.8656 55.7887 24.0257 55.9032 24.1633C56.1994 24.5152 56.2231 24.8484 55.8385 25.1021C55.5186 25.3139 55.1155 25.48 54.737 25.5083C54.3121 25.5402 53.8654 25.4282 53.444 25.3182C52.9109 25.1806 52.6311 24.808 52.6406 24.2528C52.6484 23.7476 52.6816 23.2426 52.6765 22.7383C52.6739 22.4741 52.6109 22.2098 52.5724 21.9235" fill="#E62432"/>
<path id="Vector_6" d="M48.8031 21.5762C48.6589 22.0547 48.5381 22.5416 48.3652 23.0099C48.1056 23.7095 47.8075 24.3963 47.5277 25.0889C47.4463 25.2895 47.3293 25.3883 47.1072 25.2609C46.6186 24.983 46.2154 23.5847 46.4978 23.0587C46.8842 23.3686 47.2015 23.1628 47.4769 22.8917C47.8318 22.5439 48.157 22.1672 48.4955 21.8023C48.575 21.7172 48.651 21.6284 48.7298 21.5415C48.7544 21.5527 48.7787 21.5639 48.8033 21.5759" fill="#E62432"/>
<path id="Vector_7" d="M49.2113 22.3395C49.4989 22.1183 50.4018 22.1407 50.7192 22.4574C50.7804 22.5177 50.8434 22.6338 50.8267 22.7061C50.7245 23.1365 50.6519 23.5847 50.47 23.9824C50.1097 24.769 49.0161 25.3086 48.0108 25.2372C48.1165 25.1649 48.1883 25.1108 48.2651 25.0651C49.0029 24.6263 49.4007 23.9842 49.3944 23.1331C49.3925 22.8844 49.2824 22.6356 49.2108 22.3397" fill="#E62432"/>
<path id="Vector_8" d="M50.8599 22.2087C51.1406 22.0186 51.8905 22.0572 52.1589 22.3351C52.2175 22.3954 52.2488 22.5047 52.2488 22.5916C52.2507 23.1698 52.2611 23.7499 52.2208 24.3265C52.2034 24.5805 52.1167 24.8522 51.9829 25.0699C51.7906 25.3839 51.4164 25.3513 51.2539 25.02C51.1612 24.8306 51.1132 24.6085 51.0949 24.3977C51.0634 24.0381 51.0949 23.6732 51.0583 23.3143C51.0233 22.964 50.9359 22.619 50.8599 22.2085" fill="#E62432"/>
<path id="Vector_9" d="M50.7644 17.1174C51.3063 17.2018 51.8536 17.2662 52.3867 17.3876C52.4943 17.4125 52.641 17.6776 52.6114 17.7922C52.5634 17.9763 52.4139 18.2129 52.2511 18.2688C52.072 18.3307 51.7695 18.2809 51.6262 18.1586C51.301 17.8841 51.0414 17.5348 50.7556 17.2155C50.7581 17.1829 50.7616 17.15 50.7644 17.1174Z" fill="#E62432"/>
<path id="Vector_10" d="M47.386 17.9852C47.8923 17.9749 48.3573 18.024 48.7857 18.2485C49.0636 18.3939 49.0951 18.6727 48.9929 18.9078C48.9194 19.0773 48.7298 19.2425 48.5522 19.313C48.3075 19.4111 48.1677 19.2208 48.0478 19.0127C47.8573 18.6805 47.6343 18.3665 47.386 17.9852Z" fill="#E62432"/>
<path id="Vector_11" d="M46.3947 20.0836C46.8937 20.1473 47.3256 20.1749 47.7426 20.2703C47.8877 20.3038 48.0782 20.4914 48.0993 20.6299C48.1387 20.8914 47.9883 21.1472 47.705 21.1953C47.5328 21.2245 47.2801 21.173 47.164 21.0584C46.9009 20.8003 46.6997 20.4809 46.3947 20.0834" fill="#E62432"/>
<path id="Vector_12" d="M29.0572 43.3983C29.0354 43.6222 29.0178 43.7967 28.9985 43.9852C29.1156 43.9645 29.2695 43.9104 29.4225 43.9156C29.7932 43.9277 30.1812 43.9063 30.5291 44.0094C31.1796 44.2031 31.2547 44.4398 31.219 45.1015C31.1824 45.7847 31.2783 46.4768 31.225 47.1581C31.1988 47.4904 31.0083 47.8354 30.8105 48.1202C30.6409 48.3637 30.349 48.3981 30.127 48.1236C29.9529 47.9093 29.7389 47.8774 29.4765 47.8938C28.8567 47.9308 28.2352 47.9333 27.6154 47.9687C27.5131 47.9746 27.4169 48.0789 27.2236 48.1941C29.0794 48.6174 30.868 48.6012 32.6497 48.6425C32.6837 48.6916 32.7178 48.7406 32.751 48.7888C32.6731 48.8155 32.5919 48.8369 32.5159 48.8695C31.8481 49.1639 31.2021 49.5313 30.5071 49.7284C30.0639 49.8549 29.5245 49.817 29.0681 49.7001C27.922 49.4067 26.7953 49.0393 25.6692 48.6751C25.0512 48.4755 24.467 48.4702 23.9128 48.8257C23.6304 49.0083 23.4207 48.9127 23.2572 48.6829C23.0797 48.4333 22.9346 48.164 22.7695 47.8929C23.2957 47.8687 23.7417 47.8386 24.1875 47.8318C24.4095 47.8283 24.5389 47.7172 24.5048 47.5305C24.4496 47.2328 24.4077 46.8859 24.2259 46.6673C23.8982 46.2714 23.8736 45.9316 24.1543 45.5262C24.2215 45.4299 24.225 45.2911 24.2593 45.1725C24.1256 45.1862 23.9779 45.169 23.8616 45.2197C23.4455 45.4039 23.0686 45.211 22.9357 44.7859C23.4654 44.5037 23.9795 44.2273 24.4979 43.9599C24.5556 43.9307 24.649 43.9204 24.706 43.9453C25.0407 44.09 25.3861 44.2216 25.6956 44.4083C25.9577 44.5657 25.9044 44.743 25.6912 44.9591C25.4079 45.2448 25.1631 45.5727 24.936 45.9049C24.8905 45.9704 24.9571 46.1906 25.0382 46.2456C25.8312 46.7903 25.8678 46.9135 25.4176 47.7336C25.401 47.7628 25.4003 47.7998 25.3861 47.8594C25.881 47.9531 26.3678 48.0453 26.8539 48.1364C26.3321 47.5719 26.6179 46.9188 26.6012 46.3068C26.5908 45.8981 26.6091 45.4858 26.5653 45.0814C26.5366 44.8181 26.4183 44.565 26.3117 44.2132C26.4779 44.184 26.6946 44.1306 26.9139 44.1135C27.0171 44.1048 27.1263 44.1634 27.2303 44.1979C27.6849 44.3485 28.0609 44.2976 27.9095 43.53C27.1657 43.7495 26.4102 43.9017 25.974 42.9801C26.4251 42.9319 26.8919 42.8915 27.3553 42.8295C28.3729 42.6935 29.3877 42.5447 30.4044 42.4025C30.8949 42.3336 31.2514 42.5953 31.5688 42.9C31.7463 43.0704 31.6439 43.2434 31.3571 43.2639C30.6979 43.3112 30.0379 43.3422 29.378 43.3792C29.2565 43.386 29.1351 43.3938 29.0563 43.3981M29.7398 45.0805C29.8001 44.7818 29.6156 44.6536 29.3061 44.6803C28.8576 44.7191 28.41 44.7741 27.9677 44.8498C27.8768 44.8662 27.8087 45.0057 27.7308 45.089C27.8314 45.1234 27.9336 45.1923 28.0333 45.188C28.5857 45.1622 29.1383 45.12 29.7398 45.0805ZM27.7466 46.1888C28.4267 46.1596 29.0762 46.132 29.7371 46.1028L29.7371 45.8084L27.7466 45.8084L27.7466 46.1888ZM29.7591 46.8024C29.0563 46.8385 28.4102 46.8713 27.7519 46.9058L27.7519 47.2319C28.438 47.1958 29.0973 47.1604 29.7871 47.1235C29.7792 47.0383 29.7697 46.9247 29.7591 46.8024Z" fill="#E62432"/>
<path id="Vector_13" d="M21.2677 40.0976C20.4967 40.2163 19.8112 40.3171 19.1267 40.4271C18.2491 40.569 17.6529 40.2377 17.2769 39.3617C17.4054 39.3496 17.5217 39.3375 17.6381 39.3263C18.7334 39.2161 19.8289 39.1086 20.9232 38.9968C21.3576 38.9521 21.1216 38.6596 21.1872 38.3764C20.1775 38.6845 19.5009 38.2956 18.9378 37.5296C19.6678 37.4349 20.3592 37.3445 21.0447 37.2551C21.0046 36.5536 20.8891 36.4583 20.286 36.5082C20.0106 36.5306 19.7308 36.5117 19.4258 36.4558C19.5254 36.4126 19.6251 36.3706 19.7248 36.3259C20.4033 36.0231 21.0859 35.7294 21.7563 35.4102C21.9531 35.3164 22.1645 35.1658 21.9049 34.9068C22.2623 34.6417 22.614 34.6227 22.9617 34.8715C23.2178 35.0547 23.4862 35.232 23.696 35.4593C23.9654 35.7502 23.8928 35.9127 23.5029 35.9996C23.1017 36.0891 22.6995 36.1726 22.3289 36.2518C22.4872 36.3903 22.6392 36.5228 22.8465 36.7027C23.2136 36.6356 23.7041 36.6458 24.1237 36.9427C24.2783 37.052 24.4594 37.2921 24.4322 37.4374C24.4042 37.5914 24.1622 37.7439 23.9802 37.8256C23.7616 37.9237 23.509 37.9479 23.2704 38.0019C22.7206 38.1277 22.7153 38.1345 22.8569 38.7566C23.2459 38.6911 23.6411 38.6342 24.0319 38.5569C24.7776 38.4081 25.9394 38.8882 26.3388 39.5198C26.5505 39.8546 26.4464 40.1042 26.046 40.1111C25.5347 40.1188 25.0215 40.0533 24.5083 40.0396C23.9733 40.026 23.4373 40.0371 22.8395 40.0371C22.8395 40.1809 22.849 40.3331 22.8377 40.4837C22.7932 41.1187 22.7616 41.7572 22.6882 42.3897C22.613 43.03 22.1216 43.3449 21.5936 43.5996C21.4895 43.6496 21.2936 43.6573 21.2141 43.5943C20.6965 43.1804 20.1993 42.7416 19.694 42.3112C19.7053 42.2777 19.7157 42.2451 19.7271 42.2115C19.9832 42.2451 20.2403 42.2777 20.4965 42.3122C20.9431 42.3724 21.1214 42.2519 21.1608 41.8138C21.2088 41.2673 21.2299 40.7183 21.2674 40.0969" fill="#E62432"/>
<path id="Vector_14" d="M28.952 42.4614C28.9371 41.9288 29.6443 41.5183 29.1321 40.9622C29.5507 40.7308 30.4793 40.9597 30.7118 41.3709C30.7494 41.438 30.7494 41.5972 30.7074 41.6249C30.1654 41.9804 29.6093 42.3133 28.952 42.4614Z" fill="#E62432"/>
<path id="Vector_15" d="M60.4016 26.2547L61.7514 26.2547L61.7514 29.1522L63.7192 29.1522L63.7192 32.3699C64.2359 32.3699 64.7078 32.3923 65.1772 32.3621C65.5365 32.3389 65.6302 32.4603 65.6248 32.8062C65.6065 34.2529 65.6179 35.6994 65.6179 37.1461L65.6179 37.5463L63.2419 37.5463L63.2419 40.5351L61.4918 40.5351L61.4918 43.9369L61.0312 43.9369C58.9007 43.9369 56.7704 43.9394 54.6399 43.9335C54.403 43.9326 54.2368 43.9885 54.0753 44.1788C49.9946 48.9705 44.8613 52.0528 38.6388 53.3523C36.2584 53.8489 33.8509 54.0718 31.4198 53.9032C25.3004 53.4781 19.8602 51.374 15.1922 47.4275C10.8728 43.7753 7.97918 39.229 6.50537 33.8134C6.00352 31.9717 5.69754 30.0976 5.65303 28.1898C5.64422 27.8119 5.51395 27.714 5.15651 27.7379C4.74576 27.7656 4.33129 27.7439 3.86351 27.7439C3.86351 27.1182 3.86885 26.5322 3.86097 25.9462C3.85656 25.5994 3.96504 25.1081 3.78053 24.9445C3.57237 24.7585 3.09439 24.8601 2.73324 24.8464C2.4771 24.837 2.22003 24.8445 1.91683 24.8445C1.90895 24.7035 1.89667 24.5778 1.89574 24.4514C1.89389 23.6562 1.88183 22.8593 1.90177 22.0641C1.90965 21.756 1.83454 21.6321 1.49704 21.652C1.01095 21.6812 0.521382 21.6597 0.000520692 21.6597L0.00052024 16.4801L2.38716 16.4801L2.38716 15.2185C2.38716 14.7487 2.39945 14.2779 2.38368 13.8081C2.37488 13.5525 2.47362 13.4681 2.72467 13.4793C3.05522 13.4939 3.38739 13.4647 3.71609 13.4879C4.04386 13.5112 4.1681 13.4156 4.15767 13.0697C4.1331 12.2272 4.14979 11.3822 4.15072 10.5389L4.15072 10.0973L4.62105 10.0973C6.81274 10.0973 9.00513 10.0921 11.1968 10.1042C11.4931 10.106 11.6908 10.0241 11.8813 9.7961C15.0021 6.06982 18.8618 3.35577 23.4566 1.66559C25.7225 0.832484 28.0653 0.320434 30.4773 0.114837C37.9858 -0.526367 44.6664 1.53142 50.4675 6.22133C55.3298 10.1532 58.4079 15.2142 59.7776 21.2673C60.1265 22.8084 60.3179 24.3722 60.3729 25.9512C60.3754 26.0329 60.3886 26.1149 60.4025 26.255M22.4363 24.8601L6.48474 24.8601C6.36235 24.8601 6.23115 24.8359 6.12012 24.8712C6.02832 24.9004 5.90408 24.9926 5.89272 25.0718C5.86026 25.2808 5.88136 25.4978 5.88136 25.7509L8.34844 25.7509C13.271 25.7509 18.1936 25.7509 23.1171 25.7518C23.3366 25.7518 23.528 25.7897 23.5839 25.4593C24.3331 21.0231 28.0746 17.7582 32.6064 17.5679C37.0936 17.3794 41.0897 20.3052 42.2408 24.6339C42.378 25.1528 42.4531 25.6881 42.5563 26.2148L57.7078 26.2148C57.7078 26.1039 57.7166 26.0204 57.7069 25.9385C57.5671 24.7311 57.505 23.5092 57.2716 22.319C54.7255 9.37738 42.1047 0.752161 28.8982 2.94732C22.6748 3.98169 17.5957 6.98599 13.6382 11.8231C13.4757 12.0218 13.3148 12.0994 13.0559 12.0976C10.9133 12.0882 8.77055 12.0917 6.62707 12.0933C6.48636 12.0933 6.34566 12.1069 6.19267 12.1147L6.19267 13.4503L6.60968 13.4503C8.86327 13.4503 11.1162 13.4443 13.3697 13.4571C13.6748 13.459 13.8489 13.3512 14.0325 13.1224C18.5897 7.40996 24.522 4.21307 31.907 3.69326C32.254 3.66907 32.6038 3.69075 32.9518 3.69075L32.9518 5.87403C32.7944 5.88271 32.6625 5.88704 32.5303 5.89822C31.6527 5.97398 30.7654 5.99109 29.8998 6.13736C23.7972 7.16648 18.955 10.1931 15.3463 15.1361C15.1697 15.378 14.9984 15.4786 14.6924 15.4777C11.4228 15.4665 8.15349 15.469 4.88298 15.4718C4.74135 15.4727 4.48359 15.4855 4.47478 15.5277C4.42587 15.7935 4.40756 16.0724 4.43815 16.34C4.44511 16.3959 4.69685 16.4605 4.83593 16.4605C8.42447 16.4674 12.013 16.463 15.6008 16.4717C15.8605 16.4717 16.0169 16.4012 16.1674 16.1826C19.3285 11.589 23.647 8.66225 29.178 7.54094C30.3101 7.31207 31.4833 7.27578 32.6397 7.1674C32.7448 7.15713 32.958 7.26803 32.9596 7.32827C32.9824 7.99777 32.9745 8.66909 32.9745 9.32307C32.0102 9.42028 31.0888 9.45474 30.1901 9.61401C24.6922 10.5891 20.5109 13.471 17.593 18.1448C17.4409 18.3891 17.2854 18.4838 16.9907 18.4838C12.2508 18.4736 7.51186 18.477 2.77288 18.477C2.03946 18.477 2.05962 18.4779 2.0325 19.2067C2.0186 19.575 2.12963 19.6697 2.50283 19.6679C7.58534 19.6558 12.6672 19.6567 17.7497 19.667C18.0591 19.6679 18.22 19.5801 18.3711 19.3065C20.5304 15.3814 23.7738 12.7326 28.0929 11.3729C29.5468 10.9151 31.0442 10.6869 32.5697 10.663C32.7035 10.6605 32.9536 10.7698 32.9562 10.835C32.9849 11.4943 32.9735 12.1551 32.9735 12.8538C32.5382 12.8771 32.1351 12.8787 31.7383 12.9243C26.2476 13.5568 22.3032 16.327 19.9305 21.2442C19.7793 21.5575 19.627 21.6823 19.2592 21.6805C14.3243 21.6668 9.38946 21.6712 4.45461 21.6712L3.94047 21.6712L3.94047 22.8217C4.06634 22.831 4.17297 22.8465 4.2796 22.8465C9.63146 22.8475 14.9824 22.8465 20.3343 22.8509C20.5607 22.8518 20.6734 22.7888 20.7626 22.5677C22.6544 17.8924 26.1284 15.1272 31.162 14.2695C31.7434 14.1704 32.3421 14.167 32.9559 14.117L32.9559 16.351C30.4068 16.4044 28.14 17.1935 26.1782 18.7762C24.2149 20.3614 22.9866 22.3947 22.4349 24.8594M8.28423 27.7973C8.28423 27.9299 8.2738 28.0373 8.28608 28.1432C8.4138 29.231 8.48195 30.3308 8.68733 31.4047C9.66021 36.5103 12.0241 40.9146 15.8609 44.4747C21.9068 50.0829 29.099 52.2584 37.2893 50.9262C43.4086 49.9307 48.3924 46.9109 52.301 42.1744C52.4452 41.998 52.5878 41.9266 52.8212 41.9282C54.6833 41.9394 56.5444 41.9341 58.4056 41.9341C59.444 41.9341 59.432 41.9341 59.4396 40.9196C59.4415 40.609 59.3305 40.5376 59.0358 40.5383C56.881 40.5451 54.7252 40.5401 52.5704 40.5296C52.3404 40.5278 52.1919 40.5889 52.0502 40.7765C49.8393 43.6939 47.0971 46.0002 43.8092 47.6671C40.6026 49.2936 37.1933 50.1532 33.5855 50.2401C33.019 50.2531 33.019 50.2504 33.019 49.7091C33.0181 49.2753 33.0329 48.8409 33.012 48.4071C32.9981 48.1136 33.0941 48.0198 33.401 48.0077C34.1833 47.9785 34.971 47.9562 35.7429 47.84C42.0178 46.9004 47.0069 43.8815 50.703 38.8016C50.8541 38.5916 51.0064 38.5056 51.2695 38.5072C54.4167 38.5243 57.5637 38.5314 60.7108 38.5391C60.8648 38.5391 61.0177 38.5261 61.1689 38.5193L61.1689 37.584C61.0562 37.5762 60.9721 37.565 60.8875 37.565C57.3611 37.5632 53.8337 37.5668 50.3071 37.5573C50.0544 37.5573 49.9399 37.6759 49.8175 37.855C47.4501 41.2956 44.3101 43.8007 40.3973 45.3574C38.1733 46.242 35.8558 46.6911 33.4587 46.7669C33.0976 46.778 32.9893 46.6678 33.012 46.3219C33.0401 45.889 33.0174 45.4546 33.0174 45.0199C33.0174 44.5423 33.0199 44.5699 33.4886 44.5268C34.4615 44.4382 35.4485 44.3951 36.4014 44.1989C41.6133 43.1248 45.6059 40.3179 48.4086 35.8705C48.5669 35.6193 48.7259 35.5444 49.0108 35.5451C53.6772 35.5538 58.3427 35.551 63.0085 35.551C63.1186 35.551 63.2366 35.5725 63.3372 35.5408C63.4195 35.515 63.5365 35.4271 63.5409 35.361C63.5627 35.0417 63.5504 34.7207 63.5504 34.3757L63.1666 34.3757C58.1452 34.3757 53.1237 34.3791 48.1033 34.3688C47.8191 34.3679 47.7011 34.4859 47.5797 34.707C46.1756 37.2663 44.2176 39.3161 41.7051 40.8461C39.1708 42.3907 36.4014 43.1679 33.429 43.2831C33.1064 43.2952 32.9972 43.2058 33.013 42.8838C33.0375 42.3786 33.0278 41.8718 33.0148 41.365C33.0095 41.13 33.1006 41.0586 33.334 41.0458C33.9198 41.0138 34.5116 40.9942 35.0885 40.897C40.1789 40.0415 43.8356 37.3058 46.0491 32.7165C46.196 32.4119 46.3541 32.3275 46.6777 32.3275C51.4665 32.3377 56.2544 32.3361 61.0435 32.3327C61.7753 32.3318 61.6904 32.4514 61.6955 31.6735C61.699 31.1598 61.6955 31.1598 61.1798 31.1598C56.0491 31.1598 50.9176 31.1623 45.786 31.153C45.4494 31.1521 45.279 31.2331 45.1488 31.5694C43.2816 36.3739 38.5537 39.6577 33.3567 39.7903C33.0996 39.7971 33.0079 39.7154 33.0148 39.4624C33.0287 38.9684 33.0401 38.4727 33.0123 37.9805C32.993 37.6424 33.1249 37.5529 33.4485 37.5383C38.2417 37.3197 42.2596 34.1021 43.4309 29.5411C43.5132 29.2228 43.645 29.1358 43.9747 29.1367C49.0442 29.1488 54.1144 29.1454 59.184 29.1454C59.2941 29.1454 59.4076 29.1584 59.5136 29.1386C59.5843 29.1255 59.6823 29.0801 59.7067 29.0233C59.9007 28.5637 59.684 28.2548 59.1812 28.2548C53.8662 28.2539 48.5509 28.2539 43.2359 28.2539C42.7365 28.2539 42.4326 28.4948 42.3242 28.9768C41.4239 32.9741 38.0616 35.9025 33.8901 36.3251C29.8486 36.7337 25.8764 34.4439 24.2582 30.7048C23.8649 29.7953 23.663 28.8056 23.356 27.797L8.28469 27.797L8.28423 27.7973Z" fill="#E62432"/>
<path id="Vector_16" d="M16.1003 30.253C16.0802 30.4914 16.0785 30.6756 16.047 30.8554C15.8773 31.8338 15.8757 31.9285 16.9116 31.9363C17.1397 31.9381 17.3715 31.8751 17.5961 31.8245C17.8864 31.7574 18.0797 31.8701 18.1819 32.1248C18.2983 32.4123 18.1898 32.6626 17.8898 32.7616C17.0523 33.0371 16.2227 32.9682 15.4246 32.6241C15.0146 32.4468 14.8521 32.0819 14.8467 31.6515C14.8423 31.2565 14.8458 30.8625 14.8458 30.4088C14.5023 30.4672 14.2348 30.5129 13.9673 30.5585C13.9402 30.5973 13.914 30.6368 13.8878 30.6756C13.9656 30.7109 14.0591 30.7299 14.1186 30.784C14.4527 31.0904 14.4508 31.2444 14.1738 31.6022C13.5357 32.4267 12.7821 33.0893 11.7269 33.3396C11.5792 33.375 11.4253 33.3896 11.2399 33.3406C11.3229 33.2648 11.4024 33.1847 11.4881 33.1117C12.0642 32.6211 12.4856 32.023 12.7584 31.3252C12.8651 31.0532 12.9395 30.7883 12.5275 30.6781C12.407 30.6455 12.3073 30.5377 12.1657 30.443C12.1404 30.7045 12.137 30.9387 12.0922 31.165C12.0014 31.6367 11.6664 31.9687 11.3071 31.924C11.1699 31.9075 11.0021 31.8156 10.9232 31.7054C10.6532 31.3293 10.7457 30.8492 11.0639 30.5161C11.3097 30.258 11.5071 29.955 11.7415 29.6528C12.2809 30.25 12.9916 29.8628 13.6351 29.8069C14.7417 29.7113 15.8388 29.5125 16.9353 29.3302C17.298 29.2699 17.6277 29.3053 17.916 29.505C18.305 29.7726 18.6854 30.0592 19.034 30.375C19.2753 30.5937 19.2141 30.8346 18.9387 30.8939C18.2141 31.048 17.4858 31.1874 16.7148 31.3423C16.7786 31.1461 16.8486 30.9387 16.9142 30.7306C17.054 30.2899 16.9675 30.1797 16.5006 30.2073C16.3565 30.2151 16.2121 30.2393 16.1003 30.253Z" fill="#E62432"/>
<path id="Vector_17" d="M10.8254 35.5859C11.5493 35.5309 12.1778 35.4844 12.8055 35.4344C13.0862 35.412 13.3651 35.3655 13.6446 35.3561C13.8727 35.3484 13.9462 35.2443 13.9314 35.0385C13.9235 34.9189 13.9225 34.7975 13.9323 34.677C13.949 34.4662 13.8878 34.3647 13.6437 34.3208C13.0948 34.2218 12.7547 33.8175 12.3368 33.3778C12.7897 33.3321 13.1611 33.3132 13.5266 33.2538C14.0433 33.1703 14.5537 33.0526 15.0695 32.9579C15.5871 32.8623 16.0679 32.9415 16.4701 33.2995C16.7051 33.5094 16.6694 33.8038 16.3695 33.9491C16.1676 34.0482 15.9307 34.0945 15.7042 34.1239C15.4499 34.1559 15.3405 34.2745 15.3326 34.518C15.3266 34.7307 15.3055 34.9422 15.2862 35.2133C15.76 35.1521 16.191 35.098 16.6221 35.0412C17.4981 34.9267 18.123 35.3751 18.659 35.9629C18.9082 36.2365 18.7586 36.4998 18.3783 36.5085C18.0373 36.5162 17.6903 36.5196 17.3528 36.4724C15.6717 36.2401 14.0099 36.4724 12.3479 36.66C12.006 36.6988 11.7394 36.6324 11.5192 36.4019C11.2902 36.1628 11.0883 35.8976 10.8252 35.5861" fill="#E62432"/>
<path id="Vector_18" d="M13.7974 28.1785C14.426 28.2965 14.9995 28.385 15.5614 28.5167C15.8245 28.5788 15.8087 28.8204 15.7406 29.0262C15.6122 29.41 14.9984 29.6131 14.6268 29.3653C14.2274 29.1002 13.9249 28.7431 13.7971 28.1785" fill="#E62432"/>
<path id="Vector_19" d="M23.7287 41.7707C24.2271 41.8645 24.7287 41.9427 25.2211 42.0589C25.4719 42.1182 25.5971 42.324 25.5744 42.5837C25.5507 42.8557 25.4283 43.0777 25.146 43.1551C24.8942 43.224 24.6731 43.1809 24.5069 42.9374C24.2568 42.5734 23.9807 42.2257 23.7158 41.8711C23.7211 41.8375 23.7246 41.804 23.729 41.7704" fill="#E62432"/>
<path id="Vector_20" d="M26.9084 41.2664C27.3105 41.3577 27.7257 41.4152 28.1061 41.5617C28.2275 41.6082 28.3483 41.9206 28.3036 42.0607C28.2468 42.2389 28.0449 42.4135 27.8613 42.4936C27.773 42.5324 27.543 42.3818 27.4522 42.2613C27.237 41.9808 27.0676 41.6666 26.8796 41.3654C26.8891 41.3328 26.8988 41.2992 26.9084 41.2664Z" fill="#E62432"/>
</g>
</g>
</g>
</g>
</g>
<defs>
<clipPath id="clip0_2_6">
<rect width="65.625" height="53.9583" fill="white"/>
</clipPath>
</defs>
</svg>
