<?xml version="1.0" encoding="utf-8"?>
<!-- Generator: Adobe Illustrator 27.1.1, SVG Export Plug-In . SVG Version: 6.00 Build 0)  -->
<svg version="1.1" id="Layer_1" xmlns="http://www.w3.org/2000/svg" xmlns:xlink="http://www.w3.org/1999/xlink" x="0px" y="0px"
	 viewBox="0 0 3000 3000" style="enable-background:new 0 0 3000 3000;" xml:space="preserve">
<style type="text/css">
	.st0{fill:#E62432;}
</style>
<g>
	<path class="st0" d="M1893.2,994.3c16.6-1.5,33.3-4,49.9-4.2c16.2-0.2,20.3-7.4,16.5-23.4c-20.7,1.7-43.7,17.2-61.4-11.7
		c-23.4,72.6-60.1,129.3-130.1,161c0.5-3.6,0.2-5.4,1-6.3c49.5-62,66.6-135.3,74.5-211.9c1.7-17.3,1.9-34.8,3-52.2
		c0.8-14-1.5-26.4-17-32.4c-0.1-1.6-0.2-3.3-0.3-4.9c10.4-2.8,22.6-10.4,30.9-7.4c33.1,12,64.6,1,96.6-2.9
		c7.1-0.9,14.2-2.6,21.7-4.1c-9.4-14.4-18-27.7-26.7-41.1c1.4-1.3,2.9-2.7,4.3-4c23.7,4,47.7,6.9,70.9,12.7
		c5.4,1.4,8.3,12.6,12.3,19.3c-1.1,1.4-2.1,2.9-3.2,4.3c8.6-1.1,17.4-1.3,25.6-3.6c26.8-7.5,47.5,3.6,66,20.9
		c3.4,3.1,6.9,10.3,5.4,13.2c-2,4.1-8.4,8-13.3,8.4c-28.4,2.7-56.8,4.3-85.3,6.4c-5.5,0.4-10.9,1.5-17.3,2.4
		c6.1,7.7,10.9,13.6,16.1,20.3c-0.1,0,1.1,0.6,1.9,0.3c18.5-6,36.7-10.7,53.3,5c13.4,12.7,27,25.4,40.7,37.8c3,2.7,6.6,4.7,10.1,6.9
		c12,7.6,24.4,14.5,35.8,22.9c3.5,2.6,6.9,10.4,5.4,13.2c-2.1,4-8.6,7.5-13.6,8c-16.2,1.8-32.7,1.7-49,3.4
		c-4.9,0.5-12.7,3.7-13.4,6.9c-1.8,8.5-1.5,17.8-0.2,26.5c1,6.6,4.8,12.9,7.3,19.3c-5.7,1.8-11.4,4.4-17.3,5.2
		c-51.3,6.2-102.7,12-153.9,18.2c-17.9,2.1-27.6-10.7-39.4-20c-3.3-2.6-6.7-5-10.1-7.5C1891.7,997.5,1892.4,995.9,1893.2,994.3
		 M1904.4,930.8c17.5-1.9,31.9-3.9,46.5-4.8c13.4-0.8,16.9-7.3,14.9-15.7c-19.6-6-36.5-11.2-54.6-16.7
		C1909.3,904.2,1907.2,915.9,1904.4,930.8 M1915.2,874.9c14.1-1.9,27.5-4.3,40.9-5.2c11.4-0.8,12.2-7.2,11.2-16
		c-1.1-10.4-6.9-13.1-16.4-10.9c-5.6,1.3-11.2,2.8-16.9,3.4C1917.8,847.8,1911.1,856.2,1915.2,874.9 M2020.3,914.5
		c12.6-1.5,20.8-2,28.7-3.7c2.7-0.6,6.5-4.1,6.7-6.5c0.2-2.9-2.6-8.4-4.5-8.7c-7.5-0.8-15.8-1.5-22.6,1
		C2025,898,2024,906,2020.3,914.5 M2019.2,975.8c21.5,1.1,24.9-1.8,24.3-20.3C2018.5,954.5,2016.7,955.9,2019.2,975.8"/>
	<path class="st0" d="M1729.2,921.1c-4.6-17.7-10.9-32.9-12.1-48.5c-3.3-43.7-4.5-87.5-6.4-131.2c-0.3-7.8,0-15.7,0-26.2
		c-22.9,2.7-43.6,5.1-64.1,7.7c-12,1.6-24.3,2.6-35.9,6c-19.5,5.7-34.1-1.4-46.7-15c-8.8-9.5-16.8-19.9-26.4-31.4
		c58.7-6.1,114.4-12,170.7-17.9c0-16,0.8-29.2-0.2-42.2c-1-12.5-7.2-18.7-21.4-15.6c-15,3.3-30.4,4.6-45.6,6.8l-1.4-5.2
		c4.8-2.5,9.5-5.1,14.3-7.7c25.3-14,51.1-27.4,75.8-42.5c13-7.9,12.3-11.3,2.5-23.7c17.2-10.9,34.3-15,53-3.1
		c11.1,7.1,23.6,12,34.2,19.6c4.8,3.4,9.3,11.8,8.4,17c-0.9,4.7-8.6,10-14.4,11.7c-18.1,5.4-36.7,9.2-59.3,14.6
		c34.2,14.9,4.9,41.1,16.5,62.4c20.8-3.4,42.5-6.7,64.1-10.6c30.2-5.5,81.8,17.8,97.3,44.5c8.1,13.8,3.1,24.7-13,24.9
		c-21.1,0.2-42.2-2.1-63.2-3c-24.7-1.1-49.5-1.4-74.2-2.8c-12.3-0.7-14.3,5-15.1,16c-3.5,51.5-7.5,103.1-12.7,154.5
		C1752.1,894.7,1748.7,910.3,1729.2,921.1"/>
	<path class="st0" d="M2325.9,1177.1c20.2,27.5-12.4,33.7-18.3,53.6c19-1.5,36.7-3,58.2-4.7c-8-10-13.7-17.2-20.4-25.6
		c3.7-0.8,7.2-2.9,9.9-2.1c22.5,6.6,45.4,12.4,67.1,21.2c12.5,5.1,17.6,18,15.7,31.9c-1.6,11.3-7.7,19.7-19.6,22.2
		c-13.9,2.9-24.2-2.3-33.1-13.4c-2.8-3.6-10.6-6.2-15.2-5.1c-38.4,9.2-76.6,19.4-114.8,29.3c-2.5,0.6-5.6,2.3-7.5,1.5
		c-16.2-7.1-16.3-23.4-19.9-37.3c-2.5-9.6-2.1-19.3,9.6-23.7c16.2-6,20.4-21.1,29.2-35.6c-33.1,1.9-43.4-25.1-66-43.1
		c13-0.9,21.7-1.2,30.2-2.3c49.2-5.9,98.5-12,147.7-18.1c23.9-2.9,41.7,9.4,57.4,24.6c8.8,8.5,3.1,18.4-10.7,19.5
		c-29,2.1-57.9,3.7-86.9,5.6C2335.4,1175.6,2332.3,1176.2,2325.9,1177.1"/>
	<path class="st0" d="M1878.6,1039.4c9.7-2,20.3-7.7,28.9-5.6c37.9,9.2,75,2.2,111-6.2c39.5-9.3,71,3,102.2,23.7
		c10.8,7.2,12.7,12.9,2.8,23.4c-14.9,15.7-31.9,31.9-14.6,58.7c-34.1,2.6-64.9,4.9-95.8,7.3c-15.2,1.2-30.5,2.4-45.7,3.9
		c-2.9,0.3-6,1.4-8.5,2.9c-16.7,10.2-30.5,5.3-36.3-13.6c-4.7-15.6-7.8-31.8-13.2-47.2c-5.8-16.6-9.5-35.4-30.4-41.7
		C1879,1043.1,1878.7,1041.3,1878.6,1039.4 M1981.3,1107.7c14.4-2,29.4-5.1,44.5-5.8c14.5-0.8,17.8-9.5,17.2-20.8
		c-0.6-12.9-11.1-14.2-20.8-13.7c-15.2,0.8-30.3,2.4-45.4,4.6c-17.5,2.5-18.1,5-16.2,26.1
		C1962.1,1114.2,1973.2,1105.8,1981.3,1107.7"/>
	<path class="st0" d="M2351.9,1280c16.1-10.1,49-7.1,61.7,8.4c3.2,3.8,3.3,11.6,2.3,17.2c-2.8,15.5-7.2,30.7-10.3,46.1
		c-2.4,11.8-3.4,23.5,11.3,29c17.8,6.6,35.7,2.3,43.6-11.1c3.2-5.4,5.3-11.5,7.2-17.5c1.7-5.5,2.6-11.2,4.8-21.2
		c4.5,11.6,7.1,19.7,10.7,27.2c3.4,7.1,7.4,14.1,12.3,20.1c12.8,15.4,13.8,30-2.8,41.1c-13.8,9.3-31.2,16.6-47.5,17.8
		c-18.3,1.4-37.6-3.5-55.8-8.3c-23-6-35.1-22.4-34.7-46.7c0.3-22.1,1.8-44.3,1.5-66.4C2356.3,1304.1,2353.6,1292.5,2351.9,1280"/>
	<path class="st0" d="M2189.3,1264.8c-6.2,21-11.4,42.3-18.9,62.8c-11.2,30.7-24.1,60.8-36.1,91.1c-3.5,8.8-8.6,13.1-18.1,7.5
		c-21.1-12.2-38.5-73.5-26.3-96.5c16.7,13.6,30.4,4.6,42.2-7.3c15.3-15.2,29.3-31.8,43.9-47.7c3.4-3.7,6.7-7.6,10.1-11.4
		C2187.2,1263.8,2188.3,1264.3,2189.3,1264.8"/>
	<path class="st0" d="M2206.9,1298.2c12.4-9.7,51.4-8.7,65.1,5.2c2.6,2.6,5.4,7.7,4.6,10.9c-4.4,18.9-7.5,38.5-15.4,55.9
		c-15.5,34.5-62.7,58.1-106.1,55c4.6-3.2,7.7-5.5,11-7.5c31.8-19.2,49-47.4,48.7-84.7C2214.8,1322.1,2210,1311.2,2206.9,1298.2"/>
	<path class="st0" d="M2278.1,1292.5c12.1-8.3,44.5-6.6,56,5.5c2.5,2.6,3.9,7.4,3.9,11.2c0.1,25.3,0.5,50.8-1.2,76
		c-0.8,11.1-4.5,23-10.3,32.6c-8.3,13.8-24.4,12.3-31.5-2.2c-4-8.3-6.1-18-6.9-27.3c-1.4-15.8,0-31.8-1.6-47.5
		C2285.1,1325.6,2281.3,1310.5,2278.1,1292.5"/>
	<path class="st0" d="M2273.9,1069.4c23.4,3.7,47,6.5,70,11.8c4.6,1.1,11,12.7,9.7,17.7c-2.1,8.1-8.5,18.4-15.5,20.9
		c-7.7,2.7-20.8,0.5-27-4.8c-14-12-25.2-27.3-37.6-41.3C2273.7,1072.2,2273.8,1070.8,2273.9,1069.4"/>
	<path class="st0" d="M2128.2,1107.4c21.8-0.5,41.9,1.7,60.4,11.5c12,6.4,13.4,18.6,8.9,28.9c-3.2,7.4-11.4,14.7-19,17.8
		c-10.6,4.3-16.6-4-21.8-13.2C2148.5,1137.9,2138.9,1124.1,2128.2,1107.4"/>
	<path class="st0" d="M2085.4,1199.4c21.5,2.8,40.2,4,58.2,8.2c6.3,1.5,14.5,9.7,15.4,15.8c1.7,11.5-4.8,22.7-17,24.8
		c-7.4,1.3-18.3-1-23.3-6C2107.3,1230.8,2098.6,1216.8,2085.4,1199.4"/>
	<path class="st0" d="M1337.5,2221.1c-0.9,9.8-1.7,17.5-2.5,25.7c5.1-0.9,11.7-3.3,18.3-3.1c16,0.5,32.7-0.4,47.7,4.1
		c28.1,8.5,31.3,18.9,29.8,47.9c-1.6,29.9,2.6,60.3,0.3,90.1c-1.1,14.6-9.4,29.7-17.9,42.2c-7.3,10.7-19.9,12.2-29.5,0.2
		c-7.5-9.4-16.7-10.8-28.1-10.1c-26.7,1.6-53.6,1.7-80.3,3.3c-4.4,0.3-8.6,4.8-16.9,9.9c80.1,18.6,157.2,17.8,234.1,19.6
		c1.5,2.1,2.9,4.3,4.4,6.4c-3.4,1.2-6.9,2.1-10.1,3.5c-28.8,12.9-56.7,29-86.7,37.6c-19.1,5.5-42.4,3.9-62.1-1.2
		c-49.4-12.9-98.1-29-146.6-44.9c-26.7-8.7-51.9-9-75.8,6.6c-12.2,8-21.2,3.8-28.3-6.3c-7.7-10.9-13.9-22.7-21-34.6
		c22.7-1.1,41.9-2.4,61.2-2.7c9.6-0.2,15.2-5,13.7-13.2c-2.4-13-4.2-28.2-12-37.8c-14.1-17.3-15.2-32.2-3.1-50
		c2.9-4.2,3.1-10.3,4.5-15.5c-5.8,0.6-12.1-0.2-17.2,2.1c-18,8.1-34.2-0.4-39.9-19c22.9-12.4,45-24.5,67.4-36.2
		c2.5-1.3,6.5-1.7,9-0.6c14.4,6.3,29.3,12.1,42.7,20.3c11.3,6.9,9,14.7-0.2,24.1c-12.2,12.5-22.8,26.9-32.6,41.4
		c-2,2.9,0.9,12.5,4.4,14.9c34.2,23.9,35.8,29.3,16.4,65.2c-0.7,1.3-0.8,2.9-1.4,5.5c21.3,4.1,42.4,8.1,63.3,12.1
		c-22.5-24.7-10.2-53.4-10.9-80.2c-0.5-17.9,0.3-36-1.5-53.7c-1.2-11.5-6.3-22.6-10.9-38.1c7.2-1.3,16.5-3.6,26-4.4
		c4.5-0.4,9.2,2.2,13.7,3.7c19.6,6.6,35.8,4.4,29.3-29.3c-32.1,9.6-64.7,16.3-83.5-24.1c19.5-2.1,39.6-3.9,59.6-6.6
		c43.9-6,87.7-12.5,131.5-18.7c21.2-3,36.5,8.4,50.2,21.8c7.7,7.5,3.2,15-9.1,16c-28.4,2.1-56.9,3.4-85.4,5.1
		C1346.1,2220.6,1340.9,2220.9,1337.5,2221.1 M1367,2294.8c2.6-13.1-5.4-18.7-18.7-17.5c-19.3,1.7-38.7,4.1-57.7,7.4
		c-3.9,0.7-6.9,6.8-10.2,10.5c4.3,1.5,8.7,4.5,13,4.3C1317.2,2298.4,1341,2296.6,1367,2294.8 M1281,2343.4
		c29.3-1.3,57.4-2.5,85.9-3.8v-12.9H1281V2343.4z M1367.8,2370.3c-30.3,1.6-58.2,3-86.6,4.5v14.3c29.6-1.6,58-3.1,87.8-4.8
		C1368.7,2380.6,1368.3,2375.6,1367.8,2370.3"/>
	<path class="st0" d="M1001.4,2076.5c-33.3,5.2-62.8,9.6-92.4,14.4c-37.9,6.2-63.6-8.3-79.8-46.7c5.5-0.5,10.6-1.1,15.6-1.5
		c47.3-4.8,94.5-9.5,141.7-14.4c18.7-2,8.6-14.8,11.4-27.2c-43.6,13.5-72.7-3.5-97-37.1c31.5-4.1,61.3-8.1,90.9-12
		c-1.7-30.7-6.7-34.9-32.7-32.7c-11.9,1-23.9,0.2-37.1-2.3c4.3-1.9,8.6-3.7,12.9-5.7c29.3-13.3,58.7-26.1,87.6-40.1
		c8.5-4.1,17.6-10.7,6.4-22.1c15.4-11.6,30.6-12.4,45.6-1.5c11,8,22.6,15.8,31.7,25.8c11.6,12.7,8.5,19.9-8.3,23.7
		c-17.3,3.9-34.7,7.6-50.6,11c6.8,6.1,13.4,11.9,22.3,19.8c15.8-2.9,37-2.5,55.1,10.5c6.7,4.8,14.5,15.3,13.3,21.7
		c-1.2,6.8-11.7,13.4-19.5,17c-9.4,4.3-20.3,5.4-30.6,7.7c-23.7,5.5-23.9,5.8-17.8,33.1c16.8-2.9,33.8-5.4,50.7-8.7
		c32.2-6.5,82.3,14.5,99.5,42.2c9.1,14.7,4.6,25.6-12.6,25.9c-22.1,0.3-44.2-2.5-66.3-3.1c-23.1-0.6-46.2-0.1-72-0.1
		c0,6.3,0.4,13-0.1,19.6c-1.9,27.8-3.3,55.8-6.4,83.5c-3.2,28.1-24.4,41.9-47.2,53c-4.5,2.2-12.9,2.5-16.4-0.2
		c-22.3-18.1-43.8-37.4-65.6-56.2c0.5-1.5,0.9-2.9,1.4-4.4c11,1.5,22.1,2.9,33.2,4.4c19.3,2.6,27-2.6,28.7-21.8
		C998.9,2127.7,999.8,2103.7,1001.4,2076.5"/>
	<path class="st0" d="M1332.9,2180c-0.6-23.3,29.9-41.3,7.8-65.7c18.1-10.1,58.1-0.1,68.1,17.9c1.6,2.9,1.6,9.9-0.2,11.1
		C1385.3,2159,1361.3,2173.6,1332.9,2180"/>
	<path class="st0" d="M2689.7,1469.8h58.2v127h84.9v141c22.3,0,42.7,1,62.9-0.3c15.5-1,19.5,4.3,19.3,19.5
		c-0.8,63.4-0.3,126.8-0.3,190.2v17.5h-102.5v131h-75.5v149.1h-19.9c-91.9,0-183.8,0.1-275.7-0.2c-10.2,0-17.4,2.4-24.4,10.7
		c-176,210-397.5,345.1-665.9,402c-102.7,21.8-206.6,31.5-311.4,24.1c-264-18.6-498.7-110.8-700.1-283.8
		C553,2237.6,428.2,2038.4,364.6,1801c-21.6-80.7-34.8-162.8-36.8-246.5c-0.4-16.6-6-20.9-21.4-19.8c-17.7,1.2-35.6,0.3-55.8,0.3
		c0-27.4,0.2-53.1-0.1-78.8c-0.2-15.2,4.5-36.7-3.5-43.9c-9-8.1-29.6-3.7-45.2-4.3c-11-0.4-22.1-0.1-35.2-0.1
		c-0.3-6.2-0.9-11.7-0.9-17.2c-0.1-34.8-0.6-69.8,0.3-104.6c0.3-13.5-2.9-18.9-17.5-18.1c-21,1.3-42.1,0.3-64.6,0.3v-227h103v-55.3
		c0-20.6,0.5-41.2-0.2-61.8c-0.4-11.2,3.9-14.9,14.7-14.4c14.3,0.6,28.6-0.6,42.8,0.4c14.1,1,19.5-3.2,19-18.3
		c-1.1-36.9-0.3-74-0.3-110.9v-19.3h20.3c94.5,0,189.1-0.2,283.7,0.3c12.8,0.1,21.3-3.5,29.5-13.5
		c134.6-163.3,301.1-282.2,499.4-356.3c97.8-36.5,198.8-58.9,302.9-68c323.9-28.1,612.1,62.1,862.4,267.6
		c209.8,172.3,342.5,394.1,401.6,659.4c15,67.5,23.3,136.1,25.7,205.3C2688.5,1460.1,2689.1,1463.7,2689.7,1469.8 M1051.8,1408.7
		h-20.9H363.7c-5.3,0-10.9-1.1-15.7,0.5c-4,1.3-9.3,5.3-9.8,8.8c-1.4,9.2-0.5,18.7-0.5,29.8h17.7h88.7c212.4,0,424.7,0,637.1,0
		c9.5,0,17.7,1.7,20.1-12.8c32.3-194.4,193.7-337.5,389.2-345.8c193.6-8.3,366,120,415.6,309.7c5.9,22.7,9.2,46.2,13.6,69.3h653.6
		c0-4.9,0.4-8.5,0-12.1c-6-52.9-8.7-106.5-18.8-158.6c-109.9-567.1-654.3-945.1-1224-848.9c-268.5,45.3-487.6,177-658.3,389
		c-7,8.7-14,12.1-25.1,12c-92.4-0.4-184.9-0.3-277.3-0.2c-6.1,0-12.1,0.6-18.7,0.9v58.5h18c97.2,0,194.4-0.3,291.6,0.3
		c13.2,0.1,20.7-4.6,28.6-14.7c196.6-250.3,452.5-390.4,771.1-413.2c15-1.1,30.1-0.1,45.1-0.1v95.7c-6.8,0.4-12.5,0.6-18.2,1.1
		c-37.9,3.3-76.1,4.1-113.5,10.5C1110.6,633.3,901.7,765.9,746,982.6c-7.6,10.6-15,15-28.2,15c-141-0.5-282.1-0.4-423.2-0.3
		c-6.1,0-17.2,0.6-17.6,2.5c-2.1,11.7-2.9,23.9-1.6,35.6c0.3,2.5,11.2,5.3,17.2,5.3c154.8,0.3,309.6,0.1,464.4,0.5
		c11.2,0,18-3.1,24.4-12.7c136.4-201.3,322.7-329.6,561.3-378.7c48.8-10,99.4-11.6,149.3-16.4c4.5-0.5,13.7,4.4,13.8,7.1
		c1,29.3,0.6,58.8,0.6,87.4c-41.6,4.3-81.3,5.8-120.1,12.7c-237.2,42.7-417.6,169-543.4,373.8c-6.6,10.7-13.3,14.9-26,14.9
		c-204.5-0.5-408.9-0.3-613.4-0.3c-31.6,0-30.8,0-31.9,32c-0.6,16.1,4.2,20.3,20.3,20.2c219.3-0.5,438.5-0.5,657.7,0
		c13.4,0,20.3-3.8,26.8-15.8c93.2-172,233.1-288.1,419.4-347.7c62.7-20.1,127.3-30.1,193.1-31.1c5.8-0.1,16.6,4.7,16.7,7.5
		c1.2,28.9,0.8,57.9,0.8,88.5c-18.8,1-36.2,1.1-53.3,3.1c-236.9,27.7-407,149.1-509.4,364.6c-6.5,13.7-13.1,19.2-29,19.1
		c-212.9-0.6-425.8-0.4-638.7-0.4H254v50.4c5.4,0.4,10,1.1,14.6,1.1c230.9,0,461.7,0,692.6,0.2c9.8,0,14.6-2.7,18.5-12.4
		c81.6-204.9,231.5-326.1,448.6-363.7c25.1-4.3,50.9-4.5,77.4-6.7v97.9c-110,2.3-207.8,36.9-292.4,106.3
		C1128.6,1211.5,1075.6,1300.7,1051.8,1408.7 M441.4,1537.4c0,5.8-0.5,10.5,0.1,15.2c5.5,47.7,8.4,95.9,17.3,142.9
		c42,223.8,143.9,416.8,309.5,572.8c260.8,245.8,571.1,341.1,924.4,282.7c264-43.6,479-176,647.6-383.5c6.2-7.7,12.4-10.9,22.4-10.8
		c80.3,0.5,160.6,0.3,240.9,0.3c44.8,0,44.3,0,44.6-44.5c0.1-13.6-4.7-16.7-17.4-16.7c-93,0.3-186,0.1-278.9-0.4
		c-9.9-0.1-16.3,2.6-22.4,10.8c-95.4,127.8-213.7,228.9-355.5,302c-138.3,71.3-285.4,109-441.1,112.8c-24.4,0.6-24.4,0.5-24.4-23.3
		c0-19,0.6-38.1-0.3-57.1c-0.6-12.9,3.5-17,16.8-17.5c33.8-1.3,67.7-2.3,101-7.4c270.7-41.2,485.9-173.5,645.4-396.1
		c6.5-9.2,13.1-13,24.4-12.9c135.8,0.8,271.5,1.1,407.3,1.4c6.6,0,13.2-0.6,19.8-0.9v-41c-4.9-0.3-8.5-0.8-12.1-0.8
		c-152.1-0.1-304.3,0.1-456.4-0.3c-10.9,0-15.8,5.2-21.1,13C2131,2129,1995.5,2238.8,1826.7,2307c-95.9,38.8-195.9,58.5-299.3,61.8
		c-15.6,0.5-20.3-4.3-19.3-19.5c1.2-19,0.2-38,0.2-57.1c0-20.9,0.1-19.7,20.3-21.6c42-3.9,84.6-5.8,125.7-14.4
		c224.8-47.1,397.1-170.1,518-365c6.8-11,13.7-14.3,26-14.3c201.3,0.4,402.6,0.3,603.9,0.3c4.8,0,9.8,0.9,14.2-0.5
		c3.5-1.1,8.6-5,8.8-7.9c0.9-14,0.4-28.1,0.4-43.2H2809c-216.6,0-433.2,0.2-649.8-0.3c-12.3,0-17.3,5.1-22.6,14.8
		c-60.6,112.2-145,202-253.4,269c-109.3,67.7-228.8,101.7-357,106.8c-13.9,0.5-18.6-3.4-18-17.5c1.1-22.1,0.6-44.4,0.1-66.6
		c-0.2-10.3,3.7-13.4,13.8-14c25.3-1.4,50.8-2.3,75.7-6.5c219.6-37.5,377.4-157.4,472.8-358.5c6.3-13.4,13.2-17,27.1-17
		c206.6,0.5,413.1,0.4,619.7,0.2c31.6,0,27.9,5.2,28.1-28.9c0.2-22.5,0-22.5-22.3-22.5c-221.3,0-442.7,0.1-664.1-0.3
		c-14.5,0-21.9,3.5-27.5,18.3c-80.6,210.6-284.5,354.5-508.7,360.3c-11.1,0.3-15-3.3-14.7-14.4c0.6-21.6,1.1-43.4-0.1-64.9
		c-0.8-14.8,4.9-18.7,18.8-19.4c206.8-9.6,380.1-150.6,430.6-350.5c3.5-14,9.2-17.8,23.5-17.7c218.7,0.5,437.4,0.4,656.1,0.4
		c4.8,0,9.7,0.6,14.2-0.3c3.1-0.6,7.3-2.6,8.3-5.1c8.4-20.1-1-33.7-22.7-33.7c-229.3,0-458.6,0-687.9,0c-32.3,0-32.3,0-39.3,31.7
		c-38.8,175.2-183.9,303.5-363.9,322c-174.3,17.9-345.7-82.4-415.5-246.3c-17-39.9-25.7-83.2-38.9-127.4H441.4z"/>
	<path class="st0" d="M778.5,1645c-0.9,10.4-0.9,18.5-2.3,26.4c-7.3,42.9-7.4,47,37.3,47.4c9.8,0.1,19.8-2.7,29.5-4.9
		c12.5-2.9,20.9,2,25.3,13.2c5,12.6,0.3,23.6-12.6,27.9c-36.1,12.1-71.9,9.1-106.4-6c-17.7-7.8-24.7-23.8-24.9-42.6
		c-0.2-17.3,0-34.6,0-54.5c-14.8,2.6-26.4,4.6-37.9,6.6c-1.2,1.7-2.3,3.4-3.4,5.1c3.4,1.5,7.4,2.4,10,4.8
		c14.4,13.4,14.3,20.2,2.4,35.9c-27.5,36.1-60,65.2-105.6,76.1c-6.4,1.5-13,2.2-21,0c3.6-3.3,7-6.8,10.7-10
		c24.9-21.5,43-47.7,54.8-78.3c4.6-11.9,7.8-23.5-10-28.4c-5.2-1.4-9.5-6.1-15.6-10.3c-1.1,11.5-1.2,21.7-3.2,31.6
		c-3.9,20.7-18.4,35.2-33.9,33.3c-5.9-0.7-13.2-4.8-16.6-9.6c-11.7-16.5-7.7-37.5,6.1-52.1c10.6-11.3,19.1-24.6,29.2-37.8
		c23.3,26.2,53.9,9.2,81.7,6.8c47.7-4.2,95.1-12.9,142.4-20.9c15.7-2.6,29.9-1.1,42.3,7.7c16.8,11.7,33.2,24.3,48.2,38.1
		c10.4,9.6,7.8,20.1-4.1,22.7c-31.3,6.8-62.7,12.9-95.9,19.6c2.8-8.6,5.8-17.7,8.6-26.8c6-19.3,2.3-24.1-17.8-22.9
		C789.6,1643.4,783.4,1644.4,778.5,1645"/>
	<path class="st0" d="M551,1878.7c31.2-2.4,58.3-4.4,85.4-6.6c12.1-1,24.1-3,36.2-3.4c9.8-0.3,13-4.9,12.4-13.9
		c-0.3-5.2-0.4-10.6,0-15.8c0.7-9.2-1.9-13.7-12.4-15.6c-23.7-4.3-38.4-22.1-56.4-41.3c19.5-2,35.6-2.8,51.3-5.4
		c22.3-3.7,44.3-8.8,66.6-13c22.3-4.2,43.1-0.7,60.4,15c10.1,9.2,8.6,22.1-4.3,28.5c-8.7,4.3-18.9,6.4-28.7,7.7
		c-11,1.4-15.7,6.6-16,17.3c-0.3,9.3-1.2,18.6-2,30.5c20.4-2.7,39-5.1,57.6-7.5c37.8-5,64.8,14.6,87.9,40.4
		c10.7,12,4.3,23.5-12.1,23.9c-14.7,0.3-29.7,0.5-44.2-1.6c-72.5-10.2-144.2,0-215.9,8.2c-14.7,1.7-26.2-1.2-35.8-11.3
		C571,1904,562.3,1892.4,551,1878.7"/>
	<path class="st0" d="M679.2,1554.1c27.1,5.2,51.9,9.1,76.1,14.8c11.4,2.7,10.7,13.3,7.7,22.3c-5.5,16.8-32,25.7-48,14.9
		C697.7,1594.5,684.7,1578.9,679.2,1554.1"/>
	<path class="st0" d="M1107.6,2149.8c21.5,4.1,43.1,7.5,64.4,12.6c10.8,2.6,16.2,11.6,15.2,23c-1,11.9-6.3,21.6-18.5,25
		c-10.9,3-20.4,1.1-27.6-9.5c-10.8-16-22.7-31.2-34.1-46.7C1107.3,2152.7,1107.4,2151.2,1107.6,2149.8"/>
	<path class="st0" d="M1244.8,2127.7c17.3,4,35.3,6.5,51.7,12.9c5.2,2,10.4,15.7,8.5,21.9c-2.5,7.8-11.2,15.5-19.1,19
		c-3.8,1.7-13.7-4.9-17.6-10.2c-9.3-12.3-16.6-26.1-24.7-39.3C1244,2130.6,1244.4,2129.1,1244.8,2127.7"/>
</g>
</svg>
