<svg preserveAspectRatio="none" width="100%" height="100%" overflow="visible" style="display: block;" viewBox="0 0 39 35" fill="none" xmlns="http://www.w3.org/2000/svg">
<g id="Layer_1" clip-path="url(#clip0_0_4)">
<path id="Vector" d="M38.9921 0.84411C38.6152 1.28686 38.4719 1.84819 38.2516 2.36473C37.9597 3.042 37.4554 3.38198 36.752 3.48475C36.2345 3.56118 35.7196 3.65078 35.202 3.71139C34.9924 3.73508 34.9711 3.84314 34.9579 4.01181C34.8888 4.94206 34.8093 5.86972 34.727 6.79996C34.6924 7.19263 34.3315 7.50363 33.8962 7.50622C33.161 7.5141 32.4232 7.51939 31.688 7.50357C31.4333 7.49829 31.3642 7.57736 31.3749 7.82246C31.3935 8.26256 31.3987 8.70531 31.3722 9.14542C31.3563 9.43267 31.4757 9.46954 31.7226 9.4643C32.5215 9.45113 33.3203 9.45901 34.1192 9.45901C34.7934 9.45901 35.0163 9.68565 35.019 10.3656C35.019 10.9084 35.0216 11.4487 35.019 11.9916C35.0163 12.6004 34.7589 12.8481 34.1378 12.8507C33.3389 12.8534 32.5401 12.8665 31.7411 12.8428C31.4253 12.8323 31.3749 12.9429 31.3749 13.2223C31.3775 18.7407 31.3722 24.2565 31.3669 29.7749C30.0505 29.7749 28.7367 29.7775 27.4203 29.7775C27.4203 24.2776 27.415 18.775 27.4256 13.275C27.4256 12.9377 27.3486 12.8402 26.9983 12.8428C22.067 12.856 17.1357 12.856 12.2044 12.8428C11.8594 12.8428 11.7665 12.9272 11.7665 13.275C11.7718 18.7749 11.7585 24.2775 11.7505 29.7775C10.527 29.7801 9.30347 29.7854 8.07725 29.788C7.97902 29.788 7.87286 29.8117 7.79328 29.7221C7.79328 25.0365 7.79594 20.3535 7.79594 15.6679C7.79594 14.8246 7.78268 13.9813 7.79594 13.138C7.7986 12.9008 7.7269 12.8402 7.49604 12.8454C6.64674 12.8639 5.79744 12.8639 4.94809 12.8665C4.44114 12.8692 4.17843 12.661 4.15717 12.1708C4.13064 11.4909 4.14391 10.811 4.15451 10.131C4.15984 9.7753 4.41195 9.42479 4.91624 9.44584C5.76554 9.48012 6.61483 9.44849 7.46419 9.46695C7.73756 9.47224 7.80654 9.38787 7.79594 9.12961C7.77469 8.67633 7.78268 8.22305 7.79328 7.76978C7.7986 7.57741 7.74017 7.49834 7.53583 7.50886C6.91745 7.54578 6.30167 7.48253 5.68063 7.56683C4.78355 7.6907 4.38276 7.23478 4.34563 6.22017C4.31644 5.44014 4.19968 4.66533 4.13597 3.88789C4.12537 3.7482 4.07759 3.72186 3.95816 3.71657C3.35832 3.69023 2.76912 3.58482 2.17993 3.49522C1.61726 3.41086 1.21381 3.10256 0.948435 2.62294C0.651147 2.08271 0.383105 1.52402 0.112398 0.970572C-0.163798 0.409292 0.0830448 0.0219183 0.70942 0.0113933C1.42864 -0.00183041 2.11606 0.208993 2.82473 0.282776C3.54401 0.356559 4.25795 0.454091 4.97723 0.541044C5.57175 0.612182 6.16627 0.691254 6.76079 0.754512C7.38184 0.820415 8.00555 0.865214 8.62926 0.923182C9.52634 1.0049 10.4261 1.02859 11.3232 1.1393C11.8328 1.20255 12.3556 1.18674 12.8679 1.2052C13.8393 1.24212 14.8107 1.27375 15.7821 1.31325C18.4654 1.42655 21.146 1.28163 23.8267 1.29744C25.0237 1.30532 26.218 1.1604 27.415 1.1367C28.4023 1.1156 29.3923 1.02865 30.3744 0.912711C31.9005 0.736161 33.4345 0.638629 34.9553 0.406702C36.0409 0.240676 37.1343 0.148434 38.2252 0.00874857C38.5861 -0.0386949 38.817 0.111516 39.0001 0.390887C38.9922 0.541098 38.9922 0.691308 38.9922 0.844164L38.9921 0.84411ZM21.5069 7.5168C21.4989 7.44302 21.4856 7.36923 21.483 7.29281C21.4671 6.60496 21.3025 6.44951 20.5913 6.44951C19.88 6.44951 19.1262 6.44422 18.3963 6.45215C17.9292 6.45744 17.6824 6.71571 17.677 7.17422C17.6744 7.28752 17.6691 7.39822 17.6664 7.51156C15.8298 7.51156 13.9932 7.51944 12.1565 7.50368C11.8354 7.50104 11.7452 7.59592 11.7637 7.90428C11.7903 8.30488 11.7876 8.71071 11.7637 9.11126C11.7478 9.39063 11.8274 9.46964 12.1194 9.46964C13.9693 9.45383 15.8166 9.46176 17.6665 9.46176C17.6692 9.76219 17.6665 10.0653 17.6798 10.3657C17.6957 10.7478 17.9159 10.9745 18.3035 10.9797C19.1634 10.9902 20.026 10.9902 20.8859 10.9797C21.2734 10.9744 21.4725 10.753 21.4831 10.3577C21.491 10.0573 21.4963 9.75425 21.5043 9.45383C23.3914 9.45648 25.2811 9.45647 27.1682 9.467C27.3726 9.467 27.4256 9.40374 27.4203 9.20873C27.407 8.73176 27.4044 8.25209 27.4203 7.77512C27.4282 7.54584 27.3327 7.50897 27.131 7.50897C25.2599 7.51426 23.3834 7.51426 21.507 7.51685L21.5069 7.5168Z" fill="var(--fill-0, #C1121F)"/>
<path id="Vector_2" d="M27.4201 29.7748C28.7365 29.7748 30.0503 29.7722 31.3667 29.7722C31.9135 29.8196 32.0382 29.9513 32.0382 30.5022C32.0409 31.7592 32.0409 33.0163 32.0382 34.2733C32.0382 34.8004 31.8392 34.9954 31.311 34.9981C30.0317 35.0007 28.7551 35.0007 27.4759 34.9981C26.9211 34.9981 26.7486 34.8267 26.7486 34.2786C26.746 33.0216 26.7486 31.7645 26.7486 30.5074C26.7486 29.8987 26.823 29.817 27.4201 29.7748H27.4201Z" fill="var(--fill-0, #C8A24A)"/>
<path id="Vector_3" d="M7.79302 29.7195C7.87266 29.8091 7.97882 29.7854 8.07699 29.7854C9.30055 29.7827 10.5241 29.7775 11.7503 29.7748C12.3262 29.8223 12.4297 29.9356 12.4324 30.5233V34.2575C12.4324 34.8136 12.2466 34.9954 11.6839 34.9954C10.4179 34.9981 9.15188 34.9981 7.88586 34.9954C7.27808 34.9954 7.16393 34.8795 7.16393 34.2628C7.16126 33.0058 7.16393 31.7487 7.16393 30.4916C7.16126 29.925 7.21704 29.8565 7.79297 29.7195H7.79302Z" fill="var(--fill-0, #C8A24A)"/>
<path id="Vector_4" d="M17.6663 7.50886C17.669 7.39557 17.6769 7.28487 17.6769 7.17152C17.6822 6.7156 17.9317 6.45469 18.3962 6.44945C19.1287 6.44157 19.8586 6.44681 20.5911 6.44681C21.3237 6.44681 21.4643 6.60495 21.4829 7.2901C21.4855 7.36388 21.4988 7.44031 21.5067 7.51409C21.5067 8.15974 21.5041 8.80279 21.5041 9.44843C21.4961 9.74885 21.4908 10.0519 21.4828 10.3523C21.4749 10.7476 21.2758 10.969 20.8856 10.9743C20.0257 10.9822 19.1631 10.9848 18.3032 10.9743C17.9157 10.969 17.6954 10.745 17.6795 10.3603C17.6662 10.0598 17.6689 9.75678 17.6662 9.45636C17.6688 8.80808 17.6688 8.15714 17.6662 7.50886H17.6663Z" fill="var(--fill-0, #C8A24A)"/>
</g>
<defs>
<clipPath id="clip0_0_4">
<rect width="39" height="35" fill="white"/>
</clipPath>
</defs>
</svg>
