<svg preserveAspectRatio="none" width="100%" height="100%" overflow="visible" style="display: block;" viewBox="0 0 40 40" fill="none" xmlns="http://www.w3.org/2000/svg">
<g id="Isolation_Mode" clip-path="url(#clip0_0_4)">
<path id="Vector" d="M23.8054 24.0681C23.8005 24.1617 23.7962 24.2554 23.7934 24.3494C23.7962 24.2557 23.8001 24.1617 23.8054 24.0681Z" fill="var(--fill-0, #C8A24A)"/>
<path id="Vector_2" d="M24.7871 11.1147C24.775 11.2738 24.7623 11.4329 24.7481 11.592C24.7364 11.7261 24.725 11.8598 24.714 11.9938C24.7247 11.8598 24.736 11.7261 24.7477 11.592C24.7619 11.4329 24.7747 11.2738 24.7871 11.1147Z" fill="var(--fill-0, #C8A24A)"/>
<g id="Vector_3" filter="url(#filter0_d_0_4)">
<path d="M18.9533 11.6245C18.9533 11.7196 18.9406 11.8065 18.887 11.8934C18.2227 12.9687 17.5764 14.0555 16.8993 15.1226C15.2069 17.7902 13.3734 20.358 11.4034 22.824C11.2893 22.9674 11.195 23.1407 11.0726 23.2877C11.0585 23.3048 11.0436 23.322 11.0283 23.3384C10.9298 23.4453 10.8114 23.5325 10.6526 23.5747C10.6341 23.5336 10.6189 23.4921 10.6058 23.45C10.6033 23.4414 10.6008 23.4332 10.5983 23.4246C10.5912 23.3992 10.5848 23.3738 10.5792 23.3481C10.5359 23.1511 10.532 22.9459 10.493 22.7482C10.4707 22.6363 10.4746 22.5291 10.3282 22.5173C10.0566 23.5125 9.79146 24.5092 9.51176 25.502C9.06862 27.0767 8.61627 28.6482 8.16605 30.2208C8.14053 30.3109 8.10118 30.3967 8.06821 30.4847C6.82992 30.1472 5.66146 29.6113 4.45614 29.1805C3.07428 28.6861 1.70588 28.1531 0.331463 27.6365C0.977019 25.9288 1.62045 24.2204 2.26849 22.5137C2.72154 21.3211 3.18063 20.131 3.63723 18.9402C4.12078 17.64 4.60007 16.338 5.08858 15.0396C5.89969 12.8833 6.71647 10.729 7.53113 8.5737C7.68357 8.17045 7.84097 7.76899 7.98667 7.36288C8.05615 7.16912 8.20434 7.06759 8.3628 6.96106C10.0003 5.86213 11.6285 4.74855 13.2766 3.66571C13.6988 3.3883 14.0175 3.06441 14.2072 2.59431C14.2862 2.39805 14.3589 2.1882 14.5192 2.03341C14.8354 2.83168 15.1374 3.63568 15.4707 4.42645C16.5076 6.88634 17.6452 9.29762 18.9533 11.6245Z" fill="var(--fill-0, white)"/>
</g>
<path id="Vector_4" d="M27.2112 33.6545C27.5122 34.0707 27.4905 34.1915 27.0456 34.4678C26.3958 34.8718 25.7283 35.2475 25.0792 35.6522C24.8115 35.8188 24.6683 35.7748 24.523 35.4917C23.2687 33.0461 22.0003 30.6073 20.7492 28.1599C20.6627 27.9912 20.5724 27.9543 20.4128 27.9583C20.1579 27.9651 19.902 27.9729 19.6478 27.9565C19.4184 27.9415 19.2912 28.0226 19.1827 28.2364C18.3308 29.9198 17.4679 31.5975 16.6015 33.2735C16.2172 34.0167 15.8081 34.747 15.427 35.492C15.2689 35.802 15.0917 35.8041 14.8223 35.639C14.2065 35.2607 13.5758 34.9079 12.9572 34.535C12.5222 34.2726 12.4797 34.0921 12.7881 33.6574C13.8321 32.1856 14.8875 30.722 15.9404 29.257C16.3945 28.625 16.8529 27.9965 17.351 27.3087H11.6285C11.6611 26.4343 11.7856 25.5713 11.9476 24.7133C11.9734 24.7151 11.9983 24.7105 12.0213 24.6987C13.7665 24.703 15.5121 24.704 17.2574 24.7162C17.4172 24.7173 17.4991 24.6558 17.5629 24.5296C17.7501 24.1585 18.0851 24.0666 18.4567 24.0648C19.4369 24.0598 20.4174 24.0545 21.3973 24.0677C21.7252 24.072 22.102 24.0945 22.2875 24.398C22.4803 24.7133 22.7281 24.7255 23.0252 24.7123C23.2794 24.7005 23.5346 24.7019 23.7895 24.6976C25.2114 24.7026 26.6337 24.708 28.056 24.713C28.1283 25.5824 28.2304 26.4482 28.3733 27.3091H22.6423C22.9344 27.7302 23.1851 28.1052 23.4492 28.4702C24.7016 30.1994 25.9598 31.9243 27.2112 33.6545Z" fill="var(--fill-0, #C1121F)"/>
<path id="Vector_5" d="M31.5156 37.7231C30.3482 38.5386 29.0227 38.9543 27.6572 39.2539C25.8293 39.6554 23.9781 39.8452 22.1067 39.9324C20.8996 39.9889 19.6925 40.0275 18.4914 39.9757C15.9056 39.8645 13.3216 39.6579 10.839 38.8378C9.81131 38.4982 8.77793 38.1282 8.01113 37.2888C7.73603 36.9871 7.65379 36.6407 7.82714 36.2531C7.86933 35.6032 8.22738 35.0605 8.44611 34.4743C9.23843 32.3479 10.08 30.2398 10.9018 28.1238C11.0436 27.7592 11.2506 27.4574 11.6285 27.3087H17.351C16.8529 27.9965 16.3945 28.625 15.9404 29.257C14.8875 30.722 13.8321 32.1856 12.7881 33.6574C12.4797 34.0921 12.5222 34.2726 12.9572 34.535C13.5758 34.9079 14.2065 35.2607 14.8223 35.639C15.0917 35.8041 15.2689 35.802 15.427 35.492C15.8081 34.747 16.2172 34.0167 16.6015 33.2735C17.4679 31.5975 18.3308 29.9198 19.1827 28.2364C19.2912 28.0226 19.4184 27.9415 19.6478 27.9565C19.902 27.9729 20.1579 27.9651 20.4128 27.9583C20.5724 27.9543 20.6628 27.9912 20.7492 28.1599C22.0003 30.6073 23.2687 33.0461 24.523 35.4917C24.6683 35.7748 24.8115 35.8188 25.0792 35.6522C25.7283 35.2475 26.3958 34.8718 27.0456 34.4678C27.4905 34.1915 27.5122 34.0707 27.2112 33.6545C25.9598 31.9243 24.7016 30.1994 23.4492 28.4702C23.1851 28.1052 22.9344 27.7302 22.6423 27.3091H28.3733C28.7526 27.4585 28.9596 27.7613 29.1014 28.1284C30.0994 30.7063 31.098 33.2838 32.1016 35.8595C32.1523 35.99 32.1775 36.1169 32.1746 36.2531C32.3785 36.8312 32.1849 37.2559 31.5156 37.7231Z" fill="var(--fill-0, white)"/>
<g id="Vector_6" filter="url(#filter1_d_0_4)">
<path d="M39.0343 25.9356C38.6585 24.9571 38.2757 23.9816 37.8957 23.0045C37.7648 22.4222 37.5057 21.8845 37.2972 21.3308C35.619 16.8643 33.9266 12.4028 32.2321 7.94237C32.0715 7.52018 31.9219 7.11156 31.4858 6.83308C30.0724 5.93077 28.7026 4.9584 27.292 4.05144C26.5422 3.56919 25.8573 3.06012 25.5794 2.15817C25.5649 2.11098 25.5159 2.07452 25.483 2.03305C24.7708 3.77296 24.0813 5.52252 23.3059 7.23561C23.2872 7.25528 23.262 7.27065 23.2517 7.29317C22.2683 9.47279 21.1144 11.5616 19.9105 13.6218C18.6811 15.7267 17.3311 17.7534 15.9021 19.7256C14.8701 21.1502 13.8016 22.5459 12.6566 23.8818C12.4347 24.141 12.1454 24.3583 12.0217 24.6987C13.7669 24.703 15.5121 24.704 17.2574 24.7162C17.4172 24.7173 17.4995 24.6561 17.5629 24.5299C17.7501 24.1585 18.0851 24.067 18.457 24.0648C19.4372 24.0602 20.4174 24.0548 21.3976 24.0677C21.7256 24.072 22.102 24.0945 22.2875 24.398C22.4803 24.7133 22.7281 24.7259 23.0252 24.7123C23.2797 24.7008 23.5346 24.7019 23.7895 24.6976C25.2114 24.7026 26.6337 24.708 28.056 24.713C28.8249 24.6944 29.2099 24.3626 29.3634 23.584C29.4311 23.2401 29.4949 22.8951 29.575 22.4737C29.6874 22.7035 29.7612 22.8544 29.8349 23.0049C29.8352 23.0317 29.836 23.0585 29.8367 23.085C30.0068 23.1186 30.0479 23.1951 29.9171 23.3291C30.1862 24.3108 30.4489 25.2943 30.7261 26.2738C31.1239 27.6791 31.5319 29.0815 31.936 30.485C32.4905 30.4303 32.9758 30.1551 33.4856 29.9685C35.4286 29.256 37.3603 28.512 39.2963 27.7799C39.4204 27.7331 39.5448 27.6855 39.6689 27.638C39.4576 27.0703 39.2516 26.5008 39.0343 25.9356ZM25.3724 3.06155C25.3479 3.05905 25.3277 3.05941 25.311 3.06191C25.3277 3.05905 25.3479 3.05869 25.3724 3.06119V3.06155Z" fill="var(--fill-0, white)"/>
</g>
<path id="Vector_7" d="M25.483 2.03305C24.7708 3.77296 24.0813 5.52252 23.3059 7.23561C23.2875 7.25456 23.2616 7.27029 23.2514 7.29317C22.2683 9.47279 21.114 11.5613 19.9105 13.6218C18.6811 15.7264 17.3311 17.753 15.9021 19.7256C14.8701 21.1502 13.8016 22.5459 12.6566 23.8818C12.4343 24.141 12.1454 24.358 12.0213 24.6987C11.9983 24.7105 11.9734 24.7151 11.9476 24.7133C11.2456 24.6955 10.6901 24.2068 10.6522 23.5747H10.6526C10.8114 23.5325 10.9298 23.4453 11.0283 23.3384C11.0436 23.322 11.0585 23.3048 11.0726 23.2877C11.195 23.1407 11.2893 22.9674 11.4034 22.824C13.3734 20.358 15.2069 17.7902 16.8993 15.1226C17.5764 14.0555 18.2227 12.9687 18.887 11.8934C18.9406 11.8065 18.9533 11.7196 18.9533 11.6245C19.2001 11.4769 19.2543 11.1912 19.3755 10.9675C19.5741 10.6003 19.8878 10.2829 19.9236 9.83493C20.0601 9.83528 20.0952 9.72339 20.1445 9.62973C20.6089 8.74851 21.0942 7.87767 21.5299 6.98215C22.0599 5.89288 22.5721 4.79359 23.0436 3.67786C23.2829 3.11231 23.6115 2.57644 23.7083 1.95333C23.7363 1.90936 23.7689 1.86753 23.7909 1.82106C24.0575 1.25193 24.1997 0.630256 24.5159 0.0825804C24.8906 0.706402 25.2146 1.3556 25.483 2.03305Z" fill="var(--fill-0, #C1121F)"/>
<path id="Vector_8" d="M24.5159 0.0825804C24.1997 0.630256 24.0575 1.25193 23.7909 1.82106C23.7689 1.86753 23.7363 1.90936 23.7083 1.95333C21.3842 1.95261 19.06 1.95154 16.7359 1.95118C16.2477 1.95118 16.224 1.98693 16.4236 2.45203C16.6735 3.03474 16.9259 3.61602 17.1822 4.19587C17.6785 5.31911 18.2021 6.42911 18.7654 7.52018C19.1614 8.28664 19.5383 9.06311 19.9236 9.83493C19.8878 10.2829 19.5741 10.6003 19.3755 10.9675C19.2543 11.1912 19.2001 11.4769 18.9533 11.6245C17.6452 9.29762 16.5076 6.88634 15.4707 4.42645C15.1374 3.63568 14.8354 2.83168 14.5192 2.03341C14.7524 1.38385 15.114 0.796489 15.4019 0.173383C15.4802 0.00357491 15.6227 0.00285993 15.7741 0.00285993C18.5892 0.00285993 21.4047 0.00178745 24.2199 0.00214494C24.3244 0.00214494 24.4379 -0.0214494 24.5159 0.0825804Z" fill="var(--fill-0, #C1121F)"/>
<path id="Vector_9" d="M8.06821 30.4847C7.8711 31.6004 7.0412 32.1388 6.01668 31.7505C4.37602 31.1289 2.71729 30.5594 1.07274 29.9502C0.00460865 29.5545 -0.218376 29.0032 0.194269 27.93C0.232911 27.8292 0.285378 27.7341 0.331463 27.6365C1.70588 28.1531 3.07428 28.6861 4.45614 29.1805C5.66146 29.6113 6.82992 30.1472 8.06821 30.4847Z" fill="var(--fill-0, #C1121F)"/>
<path id="Vector_10" d="M39.1868 29.8373C37.7829 30.3642 36.3688 30.8625 34.96 31.3762C34.6331 31.4957 34.3162 31.6429 33.9872 31.7552C32.9496 32.1105 32.1218 31.594 31.936 30.485C32.4905 30.4303 32.9758 30.1551 33.4856 29.9685C35.4286 29.256 37.3603 28.512 39.2963 27.7799C39.4204 27.7331 39.5448 27.6855 39.6689 27.638C39.7522 27.851 39.8483 28.0602 39.9167 28.2779C40.1468 29.0079 39.8997 29.5698 39.1868 29.8373Z" fill="var(--fill-0, #C1121F)"/>
<path id="Vector_11" d="M29.9171 23.3291C29.8211 23.2709 29.8374 23.1751 29.8367 23.085C30.0068 23.1186 30.0479 23.1951 29.9171 23.3291Z" fill="var(--fill-0, #EDEEEF)"/>
<path id="Vector_12" d="M23.8054 24.0681C23.8005 24.1617 23.7962 24.2554 23.7934 24.3494C23.7962 24.2557 23.8001 24.1617 23.8054 24.0681Z" fill="var(--fill-0, #C8A24A)"/>
<path id="Vector_13" d="M24.7871 11.1147C24.775 11.2738 24.7623 11.4329 24.7481 11.592C24.7364 11.7261 24.725 11.8598 24.714 11.9938C24.7247 11.8598 24.736 11.7261 24.7477 11.592C24.7619 11.4329 24.7747 11.2738 24.7871 11.1147Z" fill="var(--fill-0, #C8A24A)"/>
<path id="Vector_14" d="M19.9236 9.83493C19.5383 9.06311 19.1611 8.28664 18.7654 7.52018C18.2018 6.42911 17.6782 5.31946 17.1819 4.19587C16.9255 3.61602 16.6731 3.03438 16.4232 2.45203C16.2236 1.98693 16.2474 1.95118 16.7359 1.95118C19.06 1.95118 21.3842 1.95261 23.7083 1.95333C23.6112 2.57644 23.2829 3.11231 23.0436 3.67786C22.5721 4.79359 22.0599 5.89288 21.5299 6.98179C21.0942 7.87731 20.6089 8.74816 20.1445 9.62973C20.0952 9.72303 20.0601 9.83529 19.9236 9.83457V9.83493Z" fill="var(--fill-0, white)"/>
</g>
<defs>
<filter id="filter0_d_0_4" x="-3.66854" y="2.03341" width="26.6219" height="36.4513" filterUnits="userSpaceOnUse" color-interpolation-filters="sRGB">
<feFlood flood-opacity="0" result="BackgroundImageFix"/>
<feColorMatrix in="SourceAlpha" type="matrix" values="0 0 0 0 0 0 0 0 0 0 0 0 0 0 0 0 0 0 127 0" result="hardAlpha"/>
<feOffset dy="4"/>
<feGaussianBlur stdDeviation="2"/>
<feComposite in2="hardAlpha" operator="out"/>
<feColorMatrix type="matrix" values="0 0 0 0 0 0 0 0 0 0 0 0 0 0 0 0 0 0 0.25 0"/>
<feBlend mode="normal" in2="BackgroundImageFix" result="effect1_dropShadow_0_4"/>
<feBlend mode="normal" in="SourceGraphic" in2="effect1_dropShadow_0_4" result="shape"/>
</filter>
<filter id="filter1_d_0_4" x="8.02166" y="2.03305" width="35.6472" height="36.452" filterUnits="userSpaceOnUse" color-interpolation-filters="sRGB">
<feFlood flood-opacity="0" result="BackgroundImageFix"/>
<feColorMatrix in="SourceAlpha" type="matrix" values="0 0 0 0 0 0 0 0 0 0 0 0 0 0 0 0 0 0 127 0" result="hardAlpha"/>
<feOffset dy="4"/>
<feGaussianBlur stdDeviation="2"/>
<feComposite in2="hardAlpha" operator="out"/>
<feColorMatrix type="matrix" values="0 0 0 0 0 0 0 0 0 0 0 0 0 0 0 0 0 0 0.25 0"/>
<feBlend mode="normal" in2="BackgroundImageFix" result="effect1_dropShadow_0_4"/>
<feBlend mode="normal" in="SourceGraphic" in2="effect1_dropShadow_0_4" result="shape"/>
</filter>
<clipPath id="clip0_0_4">
<rect width="40" height="40" fill="white"/>
</clipPath>
</defs>
</svg>
