<svg preserveAspectRatio="none" width="100%" height="100%" overflow="visible" style="display: block;" viewBox="0 0 40 40" fill="none" xmlns="http://www.w3.org/2000/svg">
<g id="Layer_1" clip-path="url(#clip0_0_4)">
<path id="Vector" d="M18.6048 0C19.5416 0 20.4788 0 21.4157 0C21.4895 0.0188794 21.5621 0.0474845 21.6368 0.0552079C22.0241 0.0952551 22.4143 0.112418 22.7991 0.169915C24.2792 0.391318 25.7233 0.753173 27.123 1.28981C29.2165 2.09189 31.1262 3.20721 32.8386 4.65177C34.6529 6.18214 36.1539 7.97797 37.3439 10.0347C38.1346 11.4009 38.7545 12.8391 39.1974 14.3526C39.6027 15.7388 39.8848 17.1485 39.9463 18.5962C39.9494 18.6706 39.9812 18.7438 39.9998 18.8173V21.3941C39.9526 21.7127 39.8957 22.0303 39.8599 22.3503C39.75 23.3332 39.565 24.3006 39.3055 25.2549C38.7025 27.4718 37.7333 29.5191 36.4228 31.4007C35.2253 33.1202 33.787 34.6142 32.1215 35.8914C30.5089 37.1278 28.745 38.0857 26.8441 38.7894C25.0545 39.4516 23.1987 39.835 21.2964 39.958C19.6037 40.0672 17.9185 39.9642 16.2499 39.6422C14.5961 39.3232 13.0067 38.8052 11.4845 38.0866C9.35878 37.0829 7.4673 35.7407 5.81383 34.0724C4.06624 32.3092 2.68739 30.2894 1.68558 28.0144C0.700939 25.7784 0.145967 23.4376 0.0246742 21.0019C-0.0740191 19.0181 0.119935 17.0544 0.610255 15.1261C1.0837 13.2642 1.80859 11.5067 2.78494 9.84847C3.83052 8.07323 5.12641 6.50481 6.64629 5.12404C8.88562 3.08936 11.472 1.65652 14.369 0.792076C15.4277 0.476276 16.5068 0.244002 17.6093 0.133586C17.9422 0.100118 18.2729 0.0451961 18.6048 0Z" fill="var(--fill-0, #C1121F)"/>
<path id="Vector_2" d="M22.7072 25.7701C22.5018 25.896 22.329 26.0327 22.3736 26.2844C22.4389 26.652 22.2978 26.9907 22.2712 27.3442C22.2546 27.5645 22.234 27.785 22.1957 28.0021C22.1788 28.0974 22.1362 28.2101 22.067 28.2707C21.7351 28.5611 21.4087 28.8815 20.9007 28.7479C20.8764 28.7416 20.848 28.7505 20.8229 28.7456C20.5079 28.6841 20.3165 28.8174 20.1829 29.1032C20.106 29.2676 20.0765 29.4181 20.1197 29.5894C20.1643 29.7657 20.1918 29.9473 20.2507 30.1184C20.336 30.3661 20.2696 30.5506 20.1088 30.7548C19.6674 31.3155 19.182 31.8458 18.8633 32.4969C18.8178 32.5901 18.7037 32.6674 18.6033 32.7134C18.1576 32.9182 17.7408 33.202 17.2239 33.22C17.1134 33.224 16.9847 33.2575 16.987 33.4223C16.989 33.579 17.1237 33.5498 17.211 33.5876C17.2347 33.5979 17.2593 33.6068 17.2834 33.6168C17.4418 33.6823 17.4862 33.7538 17.4344 33.912C17.4075 33.9944 17.3563 34.0782 17.2934 34.1371C17.1898 34.2346 17.0682 34.3127 16.9813 34.3785C17.1046 34.6955 17.2874 34.7661 17.5319 34.7738C17.7545 34.781 17.7794 34.8165 17.7568 35.0407C17.7388 35.2189 17.6916 35.3971 17.6358 35.5682C17.5537 35.8199 17.588 36.019 17.8183 36.1786C17.9673 36.2819 18.0941 36.4169 18.2397 36.5259C18.3764 36.6283 18.3364 36.7462 18.3 36.8737C18.2631 37.0028 18.167 37.0188 18.0569 37.0173C17.8358 37.0148 17.6143 37.0065 17.3932 37.0125C17.2259 37.0171 17.0988 36.9547 16.9718 36.8486C16.1013 36.1197 16.1148 36.1126 15.5272 35.1426C15.286 34.7447 15.1356 34.3453 15.2486 33.8948C15.3927 33.3198 15.2331 32.855 14.826 32.4511C14.693 32.3189 14.677 32.1642 14.7168 31.9837C14.7897 31.6542 14.8438 31.3206 14.9056 30.9888C14.9236 30.891 14.9193 30.7969 14.7966 30.7806C14.546 30.7477 14.5354 30.5755 14.5411 30.3795C14.548 30.1455 14.5428 29.9113 14.5425 29.677C14.5425 29.0525 14.5431 28.4278 14.5417 27.8033C14.5417 27.6886 14.5614 27.5653 14.443 27.4853C14.0059 27.1892 13.6369 26.7764 13.0816 26.682C12.8954 26.6503 12.8213 26.5384 12.8135 26.3582C12.8035 26.1282 12.6994 25.9411 12.5527 25.7644C12.2039 25.3439 11.8718 24.9096 11.5254 24.4871C11.4187 24.3567 11.3778 24.23 11.4081 24.0589C11.4576 23.7786 11.4865 23.4943 11.5108 23.2102C11.562 22.6121 11.5437 22.5872 12.048 22.2843C12.4076 22.0683 12.5303 21.8426 12.4505 21.4075C12.347 20.8431 12.4826 20.8334 11.7602 20.7882C10.8383 20.7304 11.1011 20.8566 10.4844 20.1643C9.83129 19.4315 9.83987 19.4238 8.86953 19.2235C8.62981 19.174 8.6361 19.1732 8.60721 18.9363C8.59748 18.8568 8.56344 18.7318 8.51166 18.7146C8.37349 18.6691 8.17782 18.5848 8.08771 18.7387C7.99874 18.8906 7.90749 18.8545 7.79992 18.8293C7.43319 18.7438 7.06959 18.6434 6.70142 18.5665C6.49345 18.523 6.35357 18.4189 6.25173 18.2352C6.15732 18.065 6.05262 17.898 5.93162 17.7458C5.79001 17.5673 5.77142 17.4014 5.91474 17.2214C6.03117 17.0753 5.99627 16.948 5.89014 16.8047C5.68874 16.5332 5.51996 16.2369 5.31028 15.9725C5.07456 15.6753 4.95698 15.3455 4.92494 14.9739C4.91264 14.8323 4.88375 14.6899 4.84341 14.5537C4.80136 14.4118 4.67149 14.463 4.5788 14.4765C4.54361 14.4816 4.48955 14.5715 4.49555 14.6155C4.56021 15.0881 4.56164 15.5781 4.91264 15.9682C5.04137 16.1113 5.12462 16.2949 5.23332 16.4568C5.34317 16.6207 5.29511 16.7969 5.22703 16.9408C5.15437 17.0947 4.9976 16.9752 4.87603 16.974C4.66748 16.9717 4.5399 16.8699 4.45579 16.6868C4.40659 16.5795 4.34794 16.4768 4.27729 16.3825C3.92685 15.9153 3.76723 15.3956 3.85476 14.8143C3.92027 14.3804 3.78697 14.0846 3.33698 13.9768C3.32468 13.9739 3.3141 13.9645 3.30208 13.9599C3.16105 13.907 3.10956 13.8043 3.11471 13.6561C3.12186 13.4501 3.11642 13.2439 3.11642 13.009C0.0718031 19.7616 1.56851 30.1633 10.5038 35.6331C19.0538 40.867 29.2155 37.917 34.1202 31.5852C34.0072 31.5778 33.9062 31.5655 33.8052 31.5661C33.653 31.5672 33.5992 31.4883 33.6004 31.3472C33.6024 31.113 33.5901 30.8784 33.6024 30.6447C33.6138 30.4256 33.5638 30.2399 33.4173 30.0706C33.2814 29.9135 33.1724 29.7339 33.0411 29.5726C32.9364 29.4441 32.8921 29.306 32.8969 29.1412C32.9041 28.8812 32.8798 28.6189 32.9035 28.3609C32.9324 28.0485 32.8417 27.8105 32.5969 27.6103C32.4933 27.5256 32.3935 27.3926 32.3671 27.2661C32.3145 27.0133 32.3114 26.7567 32.4635 26.5138C32.6149 26.2724 32.7216 26.0029 32.8683 25.7581C32.983 25.5664 32.9719 25.4068 32.8592 25.2169C32.5273 24.6579 32.2172 24.0864 31.888 23.5257C31.757 23.3026 31.6997 23.0866 31.7527 22.8232C31.8136 22.5188 31.8225 22.2039 31.8591 21.8944C31.8742 21.7654 31.8245 21.6944 31.698 21.6801C31.5304 21.6612 31.3622 21.6441 31.194 21.6309C30.9165 21.6095 30.6516 21.5666 30.4728 21.3154C30.3824 21.1884 30.2505 21.1481 30.0958 21.1572C29.953 21.1658 29.8083 21.1484 29.6669 21.1641C29.5826 21.1735 29.4756 21.2021 29.4258 21.2616C29.2361 21.4882 28.9953 21.5222 28.7238 21.5065C28.5032 21.4939 28.2815 21.5022 28.0604 21.5051C27.9829 21.5059 27.8827 21.4896 27.8324 21.5302C27.6227 21.6984 27.3836 21.6152 27.157 21.6364C26.9799 21.6529 26.8618 21.5623 26.7476 21.3938C26.368 20.8331 25.9223 20.3214 25.412 19.876C25.2538 19.7378 25.168 19.5922 25.172 19.3991C25.1794 19.035 25.1797 18.6706 25.1845 18.3061C25.1863 18.1731 25.1997 18.0516 25.351 17.9869C25.561 17.8971 25.5427 17.6974 25.541 17.5169C25.5407 17.4797 25.4846 17.4108 25.4552 17.4111C25.168 17.416 25.1333 17.2017 25.0821 16.9989C25.0149 16.7332 25.0126 16.7303 25.2512 16.5558C25.7553 16.1877 26.2562 15.8138 26.7708 15.4608C26.9627 15.3292 27.0537 15.1876 27.0391 14.9513C27.0248 14.7199 26.9756 14.4379 27.0829 14.2662C27.1993 14.08 27.4825 14.0014 27.6856 13.8649C27.9225 13.7056 28.1599 13.6584 28.4557 13.6933C28.7933 13.7333 29.16 13.8023 29.4807 13.5872C29.7596 13.4001 30.0634 13.3097 30.4004 13.3274C30.4774 13.3314 30.5555 13.3111 30.633 13.3043C31.0083 13.2711 31.3842 13.2402 31.7595 13.2059C31.9026 13.1927 31.9818 13.2445 31.9804 13.3938C31.9801 13.4324 31.9789 13.471 31.9804 13.5094C31.9878 13.7445 31.9958 13.9796 32.0038 14.2145C32.2232 14.2854 32.4418 14.3589 32.6624 14.4267C33.0812 14.5554 33.5372 14.5769 33.9008 14.8647C33.9362 14.8927 33.9994 14.8898 34.0504 14.8933C34.1471 14.8996 34.2034 14.8549 34.1977 14.7445C34.196 14.7091 34.1945 14.6736 34.1968 14.6381C34.2157 14.334 34.2077 14.3217 34.4377 14.2891C35.1051 14.1944 35.1163 14.197 35.6526 14.5952C35.7467 14.665 35.8354 14.7434 35.9358 14.8023C36.0111 14.8464 36.1003 14.8895 36.1844 14.8916C36.5746 14.9007 36.9651 14.901 37.3556 14.8933C37.5498 14.8895 37.5873 14.8338 37.5284 14.651C37.4131 14.2926 37.2832 13.9384 37.1705 13.5791C37.117 13.4084 37.0109 13.3615 36.8467 13.3789C36.6916 13.3955 36.5349 13.4115 36.3798 13.4049C36.2814 13.4007 36.1573 13.3835 36.092 13.322C35.8391 13.0826 35.5654 12.85 35.6086 12.4375C35.6203 12.3254 35.6555 12.1543 35.4761 12.1186C35.3637 12.0963 35.132 12.2785 35.0911 12.3995C35.0579 12.4976 35.0384 12.6003 35.011 12.7004C34.9601 12.886 34.908 13.0711 34.8391 13.3194C34.7315 13.217 34.6763 13.1632 34.6199 13.1106C34.2912 12.8039 33.9891 12.491 34.0572 11.9781C34.0687 11.892 33.9663 11.7724 33.8887 11.6964C33.6939 11.5053 33.4848 11.3285 33.2777 11.1503C33.2205 11.1011 33.1518 11.0359 33.0855 11.0324C32.8721 11.0213 32.6532 10.9852 32.4412 11.0593C32.4853 11.4853 32.6589 11.7885 33.0603 11.9389C33.1927 11.9884 33.3123 12.0731 33.4347 12.1469C33.5011 12.1866 33.5721 12.2281 33.6198 12.2862C33.653 12.3268 33.6773 12.4338 33.6582 12.4481C33.5025 12.5654 33.5575 12.7284 33.5409 12.8783C33.5317 12.9621 33.5163 13.0711 33.4608 13.1195C33.1103 13.4244 32.642 13.2894 32.4784 12.8466C32.6898 12.7141 33.0403 13.0437 33.1856 12.6217C32.8394 12.3883 32.5007 12.1486 32.15 11.9281C31.9243 11.7862 31.7295 11.6311 31.6886 11.3193C31.6108 11.3794 31.5527 11.4112 31.5112 11.4578C31.2921 11.7052 31.0547 11.8717 30.6988 11.7287C30.6367 11.7038 30.5023 11.7456 30.4611 11.8011C30.1524 12.2167 29.7571 12.5751 29.5663 13.0694C29.4933 13.2585 29.3792 13.3386 29.1912 13.3432C28.892 13.3503 28.5922 13.3452 28.2941 13.3655C28.0601 13.3815 27.8636 13.2934 27.6636 13.1978C27.5629 13.1498 27.5003 13.0843 27.4845 12.9656C27.4502 12.7081 27.3744 12.453 27.3718 12.1961C27.3701 12.0242 27.4353 11.8325 27.5274 11.6858C27.5821 11.5988 27.7457 11.5754 27.8639 11.5345C28.23 11.4074 28.5976 11.4046 28.9701 11.5193C29.0782 11.5525 29.1987 11.5456 29.326 11.5582C29.3523 11.4841 29.3772 11.4258 29.3935 11.3651C29.4129 11.2925 29.4246 11.2178 29.4389 11.1477C29.1903 11.0415 29.0873 10.8529 29.13 10.5819C29.136 10.5433 29.136 10.5038 29.1429 10.4655C29.1918 10.1886 29.1998 10.1477 29.4807 10.1388C29.9856 10.1231 30.3352 9.90138 30.5552 9.45629C30.5666 9.4334 30.5881 9.41538 30.5998 9.3925C30.7245 9.15279 30.9156 9.04723 31.1905 9.01863C31.4125 8.99546 31.6234 8.96886 31.8454 9.01777C31.9918 9.05009 32.1477 9.03865 32.3245 9.04838C32.2942 8.8038 32.271 8.60042 32.2427 8.3979C32.2293 8.30207 32.1635 8.2626 32.0748 8.29206C31.9395 8.33697 31.809 8.39733 31.6746 8.44538C31.4783 8.51546 31.4783 8.51289 31.3862 8.31437C31.3653 8.26975 31.3347 8.19509 31.3193 8.14846C31.2566 7.96195 31.1594 7.81779 30.9285 7.82122C30.7952 7.82322 30.7592 7.7251 30.7285 7.62127C30.6773 7.44763 30.6891 7.29717 30.8298 7.15729C30.97 7.01799 31.1056 6.88783 31.3021 6.82776C31.4629 6.77856 31.6208 6.71363 31.7718 6.63925C32.0722 6.49137 32.11 6.2445 31.8559 6.04541C31.3648 5.66067 30.8693 5.28108 30.3672 4.91122C29.7588 4.46297 29.1011 4.09368 28.4346 3.73926C27.3172 3.14485 26.144 2.68688 24.9265 2.35191C23.9753 2.08989 23.0133 1.85876 22.0235 1.79097C21.2849 1.74034 20.544 1.66282 19.8056 1.67741C18.9892 1.69342 18.1713 1.74377 17.3586 1.86792C16.2507 2.03754 15.167 2.29442 14.1069 2.65141C12.8582 3.07191 11.6744 3.636 10.5465 4.3148C10.1434 4.55737 9.75949 4.83141 9.2972 5.13748C9.58527 5.13748 9.78009 5.13119 9.97461 5.14006C10.0759 5.14464 10.1897 5.15207 10.2736 5.20042C10.5267 5.3463 10.8005 5.41381 11.0828 5.46501C11.225 5.49076 11.3615 5.52537 11.4029 5.70158C11.415 5.75221 11.4808 5.8263 11.5242 5.82801C11.8687 5.84031 12.2148 5.87921 12.5604 5.82973C12.5369 5.61977 12.4477 5.52937 12.2529 5.52422C11.9828 5.51707 11.7136 5.48532 11.433 5.4633C11.6678 5.02878 11.6226 4.95384 11.1638 4.94411C10.9962 4.94068 10.8185 4.9813 10.6005 4.87517C10.9381 4.62459 11.2253 4.40462 11.5214 4.19695C11.5906 4.14832 11.6884 4.12343 11.7746 4.12C12.0214 4.10999 12.2689 4.12 12.516 4.11485C12.6596 4.1117 12.7506 4.18036 12.8236 4.30364C12.8759 4.39203 12.9411 4.47241 13.0078 4.55079C13.0664 4.62002 13.1274 4.73072 13.2023 4.74502C13.4306 4.78907 13.6683 4.82969 13.8966 4.80795C14.015 4.79651 14.1277 4.65892 14.2304 4.56452C14.4936 4.32281 14.5036 4.32023 14.7974 4.60486C14.6518 4.75131 14.4991 4.89177 14.3623 5.04595C14.2304 5.19469 14.0774 5.24933 13.8797 5.24532C13.6935 5.24132 13.4975 5.20413 13.3185 5.2868C13.4137 5.95473 13.3027 5.82858 13.9058 5.8386C14.0356 5.84088 14.1675 5.84374 14.2954 5.82572C14.364 5.816 14.4699 5.77452 14.4842 5.72561C14.5485 5.50649 14.7251 5.51421 14.8907 5.49362C15.0077 5.47903 15.1298 5.48532 15.2414 5.453C15.3021 5.43555 15.3661 5.37033 15.3839 5.30969C15.4422 5.11174 15.4007 5.06225 15.175 5.00132C15.1267 4.98816 15.0806 4.96757 15.0354 4.95098C15.113 4.52333 15.1968 4.43866 15.5738 4.42865C15.7818 4.42321 15.9903 4.43208 16.198 4.44295C16.3579 4.45125 16.5253 4.42092 16.7312 4.51647C16.5493 4.68438 16.4063 4.83255 16.2466 4.95985C16.0965 5.07942 16.0985 5.22072 16.1414 5.38034C16.1866 5.54911 16.3179 5.59402 16.4692 5.60232C16.5825 5.60832 16.6963 5.60346 16.8076 5.60346C16.8076 5.42353 16.8191 5.2562 16.8048 5.09143C16.7882 4.89978 16.8588 4.79251 17.0268 4.68781C17.3961 4.45754 17.808 4.42779 18.2174 4.36514C18.5504 4.31423 18.8564 4.36085 19.1562 4.52076C19.408 4.65491 19.6683 4.78221 19.9389 4.86917C20.2928 4.98302 20.5065 5.16208 20.4204 5.56542C20.4178 5.57772 20.4161 5.59517 20.4224 5.60375C20.4636 5.65953 20.4962 5.7339 20.5523 5.76365C20.6721 5.82744 20.8266 5.81657 20.949 5.92498C20.9047 6.01795 20.8595 6.09604 20.8286 6.17957C20.7614 6.36236 20.6395 6.4599 20.4424 6.42386C20.0622 6.35435 19.8219 6.4845 19.7404 6.87811C19.7204 6.97393 19.6546 7.02599 19.5364 6.9971C19.0092 6.86809 18.4803 6.74652 17.8624 6.60121C18.3621 6.3246 18.7875 6.08918 19.2189 5.85032C18.9795 5.54282 18.7326 5.3483 18.3415 5.46787C18.1945 5.51278 18.0337 5.5288 17.8792 5.52937C17.6367 5.52995 17.4559 5.62921 17.3165 5.81857C17.1755 6.01051 16.9919 6.1112 16.7484 6.0969C16.686 6.09318 16.6225 6.10977 16.5081 6.12293C16.5945 6.27911 16.6623 6.40126 16.7315 6.52626C16.5565 6.63525 16.3336 6.58862 16.2246 6.84121C16.1377 7.04259 15.8095 6.93617 15.744 6.70161C15.718 6.60807 15.6902 6.51511 15.6588 6.40669C15.3724 6.50223 15.0975 6.55573 14.8601 6.68102C14.366 6.94161 13.8906 7.23796 13.412 7.52658C13.3688 7.55262 13.3259 7.63471 13.3342 7.68191C13.3986 8.05235 13.5227 8.3876 13.9346 8.50517C14.0465 8.53692 14.1626 8.55437 14.2774 8.57382C14.3921 8.59327 14.5045 8.61158 14.6192 8.6213C14.7949 8.63618 14.8787 8.7137 14.8667 8.89963C14.8541 9.09386 14.8601 9.29009 14.8669 9.48489C14.873 9.65252 14.9359 9.70658 15.0835 9.65052C15.1713 9.61705 15.2863 9.54554 15.3092 9.46773C15.4665 8.93167 15.8396 8.66879 16.3659 8.58211C16.545 8.55265 16.5914 8.43852 16.5871 8.27404C16.5808 8.02689 16.5911 7.77945 16.5842 7.53231C16.5796 7.36354 16.6183 7.2268 16.7733 7.13469C16.8511 7.08864 16.9209 7.02771 16.9899 6.9685C17.1034 6.87038 17.2244 6.84435 17.3786 6.89327C17.6524 6.98023 17.931 7.04917 18.2145 7.09408C18.3947 7.12268 18.4843 7.1982 18.4642 7.37555C18.4431 7.5632 18.4342 7.75199 18.4193 7.94737C18.9251 8.03862 19.2441 7.62041 19.6614 7.55405C19.682 7.58122 19.6958 7.59095 19.6966 7.60153C19.7058 7.73111 19.7235 7.86098 19.7189 7.99027C19.7043 8.39446 19.7927 8.73201 20.2233 8.8879C20.4041 8.95341 20.4616 9.08528 20.4404 9.28809C20.3915 9.76093 20.453 9.6694 20.0328 9.8293C20.0207 9.83388 20.0056 9.83388 19.9959 9.84103C19.9278 9.89109 19.8196 9.93113 19.8019 9.99549C19.7647 10.1314 19.9103 10.1508 19.9964 10.1949C20.1581 10.2778 20.3294 10.3422 20.4893 10.428C20.6009 10.4881 20.6326 10.6869 20.5717 10.8482C20.5211 10.9821 20.4018 10.9626 20.3077 10.9383C20.0313 10.8668 19.7564 10.7867 19.4864 10.6946C19.2326 10.6082 19.1954 10.3871 19.3905 10.1889C19.4266 10.1523 19.4964 10.1219 19.4995 10.0845C19.5072 9.99006 19.5201 9.85905 19.4672 9.80584C19.3954 9.73347 19.2867 9.74863 19.2197 9.87821C19.1851 9.94486 19.0902 10.0009 19.0121 10.0204C18.849 10.061 18.6782 10.0682 18.5126 10.1005C18.3896 10.1245 18.3292 10.0753 18.2631 9.97376C18.121 9.75493 17.8126 9.67312 17.5874 9.77352C17.4776 9.82243 17.4436 9.91111 17.4467 10.0267C17.4496 10.1308 17.4842 10.1963 17.594 10.2212C17.7405 10.2544 17.8841 10.2996 18.0366 10.3416C18.0117 10.3977 18.0025 10.4374 17.9796 10.4669C17.8146 10.6809 17.8154 10.676 17.5299 10.5653C17.4092 10.5187 17.2814 10.4818 17.1761 10.6134C16.9767 10.8625 16.6477 10.9955 16.5413 11.3328C16.5224 11.3926 16.4297 11.4349 16.3642 11.4732C16.2072 11.5651 16.0438 11.6463 15.8871 11.7387C15.6974 11.8505 15.4871 11.9429 15.3298 12.0905C14.9982 12.4018 14.6916 12.7399 14.3838 13.0757C14.3183 13.1472 14.2536 13.2565 14.2559 13.3466C14.2631 13.6418 14.0848 13.7805 13.866 13.9216C13.4626 14.1813 13.0441 14.4204 12.7131 14.7829C12.5804 14.9285 12.5083 15.0646 12.5212 15.2648C12.5386 15.5332 12.5255 15.8035 12.5255 16.121C12.2846 16.0114 12.06 15.919 11.8469 15.8052C11.7931 15.7766 11.7628 15.6822 11.7465 15.6121C11.7294 15.538 11.7451 15.4568 11.7408 15.3787C11.7285 15.1553 11.7188 15.1378 11.4868 15.1356C10.9143 15.1298 10.3416 15.1315 9.76922 15.1356C9.67996 15.1361 9.58384 15.1476 9.50346 15.183C8.905 15.4456 8.31456 15.7208 8.10602 16.4242C8.09515 16.4611 8.06911 16.4932 8.05538 16.5295C7.90377 16.9331 7.75444 17.3316 8.04566 17.7463C8.1249 17.8593 8.17954 17.958 8.33401 17.9626C8.437 17.9657 8.53884 17.9975 8.64154 18.0132C8.88069 18.0498 9.0961 18.0218 9.30121 17.8631C9.55781 17.6648 9.83615 17.4938 10.1114 17.3204C10.1122 17.3198 10.1131 17.3193 10.1142 17.3187C10.2621 17.2269 10.4592 17.3098 10.5013 17.4789C10.5136 17.5287 10.523 17.5784 10.527 17.6288C10.5333 17.7072 10.4584 17.793 10.4174 17.8742C10.3368 18.0344 10.2541 18.1937 10.1537 18.3894C10.422 18.436 10.6526 18.4632 10.8766 18.5178C11.2067 18.5982 11.1924 18.5493 11.211 18.8814C11.2313 19.2447 11.2682 19.6077 11.2794 19.9713C11.2859 20.1855 11.3798 20.2759 11.653 20.2748C11.8993 20.2736 12.1427 20.3208 12.3759 20.3995C12.609 20.4781 12.7581 20.4673 12.8916 20.3002C13.0865 20.0565 13.2947 19.8234 13.5038 19.5914C13.5622 19.5267 13.6509 19.4272 13.7115 19.4366C14.0814 19.4933 14.4481 19.5722 14.8129 19.656C14.8644 19.6678 14.9153 19.7407 14.9413 19.7968C15.0909 20.1217 15.3464 20.2061 15.6774 20.1417C15.7403 20.1294 15.8075 20.1395 15.8722 20.1334C15.9869 20.1229 16.1176 20.1372 16.21 20.0851C16.281 20.0451 16.3036 19.9192 16.3459 19.8357C16.7232 19.9341 16.9973 20.1243 17.1675 20.4624C17.2548 20.6355 17.3849 20.7865 17.4802 20.9564C17.5608 21.1003 17.669 21.1526 17.83 21.1455C18.0377 21.1361 18.2471 21.1561 18.4542 21.1435C18.6585 21.1309 18.7809 21.1993 18.8936 21.3821C19.1113 21.7353 19.2661 22.0986 19.2326 22.518C19.2135 22.7571 19.327 22.8561 19.537 22.9356C20.5088 23.3046 20.5065 23.31 21.5801 23.3186C21.619 23.3189 21.6582 23.3189 21.6971 23.3198C22.224 23.3289 22.1233 23.2709 22.3616 23.7008C22.517 23.9811 22.7078 24.1751 23.0285 24.23C23.2293 24.2643 23.3663 24.3584 23.3097 24.6081L23.2416 25.2981L22.7095 25.7684L22.7072 25.7701Z" fill="var(--fill-0, #FAF9F7)"/>
<path id="Vector_3" d="M33.3678 7.47653C33.3678 7.74255 33.3644 7.93507 33.3689 8.12729C33.3721 8.25945 33.3192 8.34441 33.1987 8.40076C33.0354 8.47713 32.8723 8.55694 32.7193 8.65163C32.6672 8.68395 32.6077 8.77606 32.62 8.8224C32.6346 8.87675 32.7224 8.94569 32.7811 8.94826C33.1032 8.96314 33.4264 8.96514 33.7491 8.96056C33.8893 8.95856 34.212 8.55923 34.1888 8.43394C34.1842 8.4102 34.1702 8.38531 34.1539 8.36672C33.9088 8.08753 33.6622 7.80949 33.3678 7.47653Z" fill="var(--fill-0, #FAF9F7)"/>
<path id="Vector_4" d="M12.8513 10.8482C12.8525 10.8396 12.8536 10.8313 12.8547 10.8228C12.9457 10.8228 13.0375 10.8319 13.1271 10.8205C13.2326 10.8067 13.3782 10.8848 13.4309 10.7286C13.4706 10.6114 13.4011 10.5267 13.3325 10.4231C13.2498 10.2987 13.1811 10.2349 13.0341 10.2486C12.9311 10.2581 12.8201 10.2286 12.7243 10.2561C12.5149 10.3159 12.3095 10.394 12.1098 10.4812C12.0643 10.5012 12.0211 10.5922 12.0277 10.6445C12.0329 10.6866 12.1101 10.7427 12.1627 10.7518C12.391 10.7921 12.6213 10.8176 12.8513 10.8482Z" fill="var(--fill-0, #FAF9F7)"/>
<path id="Vector_5" d="M12.9437 11.0047C12.6865 11.0407 12.4903 10.9415 12.3235 11.0891C12.1204 11.2687 11.9453 11.4664 11.933 11.7656C11.927 11.908 12.0229 11.9352 12.1087 11.9833C12.1974 12.0328 12.2514 11.9781 12.2992 11.9109C12.4983 11.6303 12.6977 11.3502 12.9437 11.0047Z" fill="var(--fill-0, #FAF9F7)"/>
<path id="Vector_6" d="M11.2139 9.62449C11.6166 9.64823 11.7202 9.41796 11.776 9.1279C11.7989 9.00919 11.7514 8.9597 11.653 8.93138C11.3921 8.85558 11.1772 8.94912 10.9635 9.12104C11.0497 9.29438 11.1343 9.46458 11.2139 9.62449Z" fill="var(--fill-0, #FAF9F7)"/>
<path id="Vector_7" d="M9.68711 6.427V6.42042C9.7655 6.42042 9.84331 6.42042 9.92112 6.42042C9.94715 6.42042 9.97318 6.42071 9.99893 6.41728C10.1663 6.39296 10.2818 6.28169 10.303 6.11578C10.3136 6.03368 10.2944 5.9719 10.1926 5.94558C9.86705 5.86148 9.60301 6.08231 9.30207 6.12036C9.27889 6.12322 9.25429 6.23249 9.25744 6.29056C9.25973 6.33003 9.30464 6.39382 9.33897 6.40011C9.45282 6.42071 9.57097 6.41928 9.68711 6.427Z" fill="var(--fill-0, #FAF9F7)"/>
<path id="Vector_8" d="M13.7908 11.6901C13.6037 11.7819 13.4644 11.8886 13.3104 11.9169C13.067 11.9621 13.0433 12.1037 13.0527 12.2962C13.6846 12.3457 13.8254 12.2441 13.7908 11.6901Z" fill="var(--fill-0, #FAF9F7)"/>
<path id="Vector_9" d="M9.76664 7.33121C9.90967 7.32177 10.0395 7.32234 10.166 7.30261C10.2999 7.28173 10.3119 7.17446 10.2964 7.0649C10.2818 6.96106 10.1997 6.95305 10.1219 6.96478C9.99521 6.98337 9.86648 7.00282 9.74547 7.04201C9.60558 7.0875 9.47256 7.155 9.33668 7.21279C9.44081 7.42361 9.63247 7.29059 9.76664 7.33121Z" fill="var(--fill-0, #FAF9F7)"/>
<path id="Vector_10" d="M13.793 11.0147C13.3897 11.0024 13.3634 11.0296 13.3834 11.3585C13.394 11.529 13.4449 11.5728 13.5994 11.5242C13.6846 11.4973 13.7647 11.4509 13.8428 11.406C13.963 11.3368 13.9964 11.2152 13.9449 11.1048C13.9169 11.0447 13.8073 11.0224 13.793 11.0147Z" fill="var(--fill-0, #FAF9F7)"/>
<path id="Vector_11" d="M14.1887 11.4129C14.1543 11.8691 14.2219 11.9435 14.6172 11.9286C14.715 11.9249 14.8338 11.9561 14.8429 11.7928C14.8506 11.6552 14.808 11.5776 14.6604 11.5502C14.5094 11.5222 14.3637 11.4652 14.1887 11.4129Z" fill="var(--fill-0, #FAF9F7)"/>
<path id="Vector_12" d="M36.334 11.6955C36.2173 11.9263 36.2625 12.1077 36.2608 12.2788C36.2577 12.564 36.2657 12.5651 36.5366 12.5496C36.5866 12.5468 36.6358 12.5316 36.7257 12.5148C36.5978 12.2476 36.4791 11.9993 36.334 11.6958V11.6955Z" fill="var(--fill-0, #FAF9F7)"/>
<path id="Vector_13" d="M29.2261 7.75114C29.378 8.45368 29.5336 9.11474 30.2728 9.40108C30.1335 9.72375 29.9155 9.90796 29.5642 9.91225C29.3314 9.91511 29.0985 9.92741 28.866 9.92541C28.8082 9.92484 28.702 9.88737 28.7012 9.86363C28.6952 9.71145 28.7095 9.55784 28.7226 9.40537C28.7338 9.27665 28.8356 9.24461 28.9383 9.21686C29.0216 9.19455 29.1271 9.20599 29.1374 9.07756C29.1469 8.96228 29.1014 8.88075 29.0015 8.82097C28.8685 8.74116 28.7429 8.64876 28.6088 8.57096C28.4686 8.48943 28.4062 8.37501 28.4346 8.21654C28.4657 8.04176 28.541 7.89473 28.7289 7.84839C28.878 7.81149 29.0307 7.78861 29.2264 7.75085L29.2261 7.75114Z" fill="var(--fill-0, #C1121F)"/>
<path id="Vector_14" d="M27.7583 9.69257C27.4628 9.68856 27.4124 9.63364 27.429 9.4131C27.4551 9.06411 27.8367 8.64705 28.1805 8.59442C28.2309 8.58669 28.2875 8.57411 28.333 8.58869C28.4643 8.63074 28.6348 8.64476 28.6717 8.80495C28.7098 8.97086 28.6886 9.13677 28.5175 9.24718C28.3445 9.35903 28.186 9.49376 28.0103 9.60074C27.9162 9.65796 27.7995 9.67798 27.7583 9.69228V9.69257Z" fill="var(--fill-0, #C1121F)"/>
<path id="Vector_15" d="M18.1195 11.5356C18.0297 11.4689 17.9276 11.4157 17.8572 11.3351C17.774 11.2398 17.8441 11.1034 17.9748 11.0828C18.0254 11.0748 18.0781 11.0745 18.1293 11.0776C18.268 11.0862 18.3638 11.0502 18.4414 10.9123C18.5229 10.7675 18.7603 10.7518 18.873 10.8657C18.8982 10.8911 18.8802 11.0158 18.8567 11.0244C18.6674 11.0919 18.5595 11.2255 18.458 11.3937C18.4116 11.4707 18.2568 11.4821 18.1192 11.5359L18.1195 11.5356Z" fill="var(--fill-0, #C1121F)"/>
</g>
<defs>
<clipPath id="clip0_0_4">
<rect width="40" height="40" fill="white"/>
</clipPath>
</defs>
</svg>
