<svg preserveAspectRatio="none" width="100%" height="100%" overflow="visible" style="display: block;" viewBox="0 0 24 24" fill="none" xmlns="http://www.w3.org/2000/svg">
<g id="map-pin">
<path id="Subtract" d="M12 1.99902C14.1215 1.99903 16.1561 2.84235 17.6562 4.34277C19.1564 5.8432 19.999 7.8781 19.999 10C19.999 14.9935 14.4604 20.1937 12.6006 21.7998C12.4273 21.9301 12.2167 22.001 12 22.001C11.7833 22.001 11.5727 21.9301 11.3994 21.7998C9.5396 20.1937 4.00098 14.9935 4.00098 10C4.00098 7.8781 4.84364 5.8432 6.34375 4.34277C7.84389 2.84234 9.87848 1.99902 12 1.99902ZM12 7C10.3431 7 9 8.34315 9 10C9 11.6569 10.3431 13 12 13C13.6569 13 15 11.6569 15 10C15 8.34315 13.6569 7 12 7Z" fill="var(--fill-0, #C1121F)"/>
</g>
</svg>
