<svg preserveAspectRatio="none" width="100%" height="100%" overflow="visible" style="display: block;" viewBox="0 0 35 35" fill="none" xmlns="http://www.w3.org/2000/svg">
<g id="Isolation_Mode" clip-path="url(#clip0_0_27)">
<path id="Vector" d="M23.8098 29.4477C24.0731 29.8118 24.0542 29.9176 23.6649 30.1594C23.0963 30.5128 22.5123 30.8416 21.9443 31.1957C21.7101 31.3414 21.5848 31.303 21.4576 31.0552C20.3601 28.9153 19.2503 26.7814 18.1556 24.6399C18.0799 24.4923 18.0008 24.4601 17.8612 24.4635C17.6382 24.4694 17.4142 24.4763 17.1918 24.4619C16.9911 24.4488 16.8798 24.5198 16.7849 24.7069C16.0395 26.1799 15.2844 27.6478 14.5263 29.1143C14.1901 29.7646 13.8321 30.4037 13.4987 31.0555C13.3603 31.3267 13.2052 31.3286 12.9695 31.1841C12.4307 30.8532 11.8788 30.5444 11.3376 30.2182C10.9569 29.9886 10.9197 29.8306 11.1896 29.4502C12.1031 28.1624 13.0266 26.8818 13.9478 25.5999C14.3452 25.0469 14.7463 24.497 15.1821 23.8951H10.1749C10.2035 23.13 10.3124 22.3749 10.4541 21.6242C10.4768 21.6257 10.4985 21.6217 10.5186 21.6113C12.0457 21.6151 13.5731 21.616 15.1002 21.6267C15.2401 21.6276 15.3117 21.5738 15.3676 21.4634C15.5314 21.1387 15.8245 21.0583 16.1496 21.0567C17.0073 21.0524 17.8653 21.0477 18.7226 21.0592C19.0096 21.063 19.3393 21.0827 19.5015 21.3483C19.6703 21.6242 19.8871 21.6348 20.147 21.6232C20.3694 21.6129 20.5928 21.6142 20.8158 21.6104C22.06 21.6148 23.3045 21.6195 24.549 21.6239C24.6123 22.3846 24.7016 23.1422 24.8266 23.8954H19.812C20.0676 24.2639 20.2869 24.5921 20.518 24.9114C21.6139 26.4245 22.7148 27.9337 23.8098 29.4477Z" fill="var(--fill-0, #A1824A)"/>
<path id="Vector_2" d="M22.2976 1.77892C21.6744 3.30134 21.0711 4.8322 20.3927 6.33116C20.3766 6.34774 20.3539 6.3615 20.3449 6.38152C19.4848 8.28869 18.4748 10.1161 17.4217 11.9191C16.3459 13.7606 15.1647 15.5339 13.9143 17.2599C13.0114 18.5064 12.0764 19.7276 11.0745 20.8966C10.88 21.1234 10.6272 21.3132 10.5186 21.6113C10.4985 21.6217 10.4768 21.6257 10.4541 21.6242C9.83994 21.6085 9.35387 21.1809 9.32068 20.6279H9.32099C9.45995 20.591 9.56356 20.5147 9.64979 20.4211C9.66313 20.4067 9.67616 20.3917 9.68857 20.3767C9.79558 20.2481 9.87809 20.0964 9.97798 19.971C11.7017 17.8133 13.306 15.5664 14.7869 13.2323C15.3794 12.2985 15.9448 11.3476 16.5262 10.4067C16.573 10.3307 16.5842 10.2547 16.5842 10.1715C16.8001 10.0423 16.8475 9.79234 16.9536 9.59653C17.1273 9.27528 17.4018 8.99751 17.4332 8.60556C17.5526 8.60587 17.5833 8.50797 17.6264 8.42601C18.0328 7.65495 18.4574 6.89296 18.8386 6.10938C19.3024 5.15627 19.7506 4.19439 20.1632 3.21813C20.3725 2.72328 20.6601 2.25438 20.7448 1.70916C20.7693 1.67069 20.7978 1.63409 20.817 1.59343C21.0503 1.09544 21.1747 0.551474 21.4514 0.0722578C21.7793 0.618102 22.0628 1.18615 22.2976 1.77892Z" fill="var(--fill-0, #A1824A)"/>
<path id="Vector_3" d="M21.4514 0.0722578C21.1747 0.551474 21.0503 1.09544 20.817 1.59343C20.7978 1.63409 20.7693 1.67069 20.7448 1.70916C18.7112 1.70854 16.6775 1.7076 14.6439 1.70729C14.2168 1.70729 14.196 1.73857 14.3706 2.14553C14.5893 2.6554 14.8102 3.16402 15.0344 3.67139C15.4687 4.65422 15.9269 5.62547 16.4198 6.58015C16.7662 7.25081 17.096 7.93022 17.4332 8.60556C17.4018 8.99751 17.1273 9.27528 16.9536 9.59653C16.8475 9.79234 16.8001 10.0423 16.5842 10.1715C15.4395 8.13542 14.4441 6.02555 13.5368 3.87314C13.2452 3.18122 12.981 2.47772 12.7043 1.77923C12.9084 1.21087 13.2248 0.696928 13.4766 0.15171C13.5452 0.00312804 13.6699 0.00250244 13.8023 0.00250244C16.2656 0.00250244 18.7291 0.00156402 21.1924 0.00187683C21.2839 0.00187683 21.3832 -0.0187683 21.4514 0.0722578Z" fill="var(--fill-0, #A1824A)"/>
<path id="Vector_4" d="M7.05968 26.6741C6.88721 27.6503 6.16105 28.1214 5.26459 27.7817C3.82902 27.2378 2.37763 26.7395 0.938644 26.2064C0.00403257 25.8602 -0.191079 25.3778 0.169986 24.4388C0.203797 24.3506 0.249705 24.2674 0.29003 24.182C1.49265 24.634 2.68999 25.1004 3.89913 25.533C4.95378 25.9099 5.97618 26.3788 7.05968 26.6741Z" fill="var(--fill-0, #A1824A)"/>
<path id="Vector_5" d="M34.2884 26.1076C33.0601 26.5687 31.8227 27.0047 30.59 27.4542C30.304 27.5587 30.0267 27.6876 29.7388 27.7858C28.8309 28.0967 28.1066 27.6447 27.944 26.6744C28.4292 26.6265 28.8538 26.3857 29.2999 26.2224C31.0001 25.599 32.6903 24.948 34.3843 24.3074C34.4928 24.2664 34.6017 24.2248 34.7103 24.1832C34.7832 24.3697 34.8672 24.5526 34.9271 24.7431C35.1284 25.3819 34.9122 25.8736 34.2884 26.1076Z" fill="var(--fill-0, #A1824A)"/>
<g id="Vector_6">
<path d="M16.5842 10.1715C16.5842 10.2547 16.573 10.3307 16.5262 10.4067C15.9449 11.3476 15.3794 12.2985 14.7869 13.2323C13.306 15.5664 11.7017 17.8133 9.97798 19.971C9.8781 20.0964 9.79558 20.2481 9.68857 20.3767C9.67616 20.3917 9.66313 20.4067 9.64979 20.4211C9.56356 20.5147 9.45996 20.591 9.32099 20.6279C9.30486 20.5919 9.29152 20.5556 9.28004 20.5187C9.27787 20.5112 9.2757 20.504 9.27353 20.4965C9.26733 20.4743 9.26174 20.4521 9.25678 20.4296C9.21894 20.2572 9.21552 20.0777 9.1814 19.9047C9.16186 19.8068 9.16527 19.7129 9.03716 19.7026C8.79955 20.5735 8.56753 21.4456 8.32279 22.3142C7.93505 23.6921 7.53924 25.0672 7.1453 26.4432C7.12296 26.5221 7.08853 26.5971 7.05968 26.6741C5.97618 26.3788 4.95378 25.9099 3.89913 25.533C2.68999 25.1004 1.49265 24.634 0.290031 24.182C0.854892 22.6877 1.41789 21.1928 1.98493 19.6995C2.38135 18.656 2.78305 17.6146 3.18258 16.5727C3.60568 15.435 4.02506 14.2958 4.45251 13.1597C5.16223 11.2728 5.87692 9.38789 6.58974 7.50199C6.72312 7.14915 6.86085 6.79787 6.98834 6.44252C7.04914 6.27298 7.1788 6.18414 7.31745 6.09093C8.75023 5.12937 10.175 4.15498 11.617 3.2075C11.9865 2.96476 12.2653 2.68136 12.4313 2.27002C12.5005 2.09829 12.5641 1.91468 12.7043 1.77923C12.981 2.47772 13.2452 3.18122 13.5368 3.87314C14.4441 6.02555 15.4395 8.13542 16.5842 10.1715Z" fill="#FAF9F7"/>
<path d="M27.5762 33.0077C26.5547 33.7213 25.3949 34.085 24.2 34.3472C22.6007 34.6985 20.9808 34.8646 19.3433 34.9409C18.2871 34.9903 17.2309 35.0241 16.18 34.9787C13.9174 34.8814 11.6564 34.7006 9.48415 33.9831C8.5849 33.6859 7.68069 33.3622 7.00974 32.6277C6.76903 32.3637 6.69707 32.0606 6.84875 31.7215C6.88566 31.1528 7.19896 30.678 7.39035 30.165C8.08363 28.3044 8.82003 26.4598 9.53905 24.6083C9.66313 24.2893 9.84428 24.0253 10.175 23.8951H15.1821C14.7463 24.497 14.3452 25.0469 13.9478 25.5999C13.0266 26.8818 12.1031 28.1624 11.1896 29.4502C10.9197 29.8306 10.9569 29.9886 11.3376 30.2182C11.8788 30.5444 12.4307 30.8531 12.9695 31.1841C13.2052 31.3286 13.3603 31.3267 13.4987 31.0555C13.8321 30.4037 14.1901 29.7646 14.5263 29.1143C15.2844 27.6478 16.0395 26.1799 16.7849 24.7069C16.8798 24.5198 16.9911 24.4488 17.1918 24.4619C17.4142 24.4763 17.6382 24.4694 17.8612 24.4635C18.0008 24.4601 18.0799 24.4923 18.1556 24.6399C19.2503 26.7814 20.3601 28.9153 21.4576 31.0552C21.5848 31.303 21.7101 31.3414 21.9443 31.1957C22.5123 30.8416 23.0963 30.5128 23.6649 30.1593C24.0542 29.9176 24.0731 29.8118 23.8098 29.4477C22.7148 27.9337 21.6139 26.4245 20.518 24.9114C20.2869 24.5921 20.0676 24.2639 19.812 23.8954H24.8266C25.1585 24.0262 25.3397 24.2911 25.4637 24.6124C26.3369 26.868 27.2107 29.1233 28.0889 31.3771C28.1333 31.4913 28.1553 31.6023 28.1528 31.7215C28.3312 32.2273 28.1618 32.5989 27.5762 33.0077Z" fill="#FAF9F7"/>
<path d="M34.155 22.6936C33.8262 21.8375 33.4912 20.9839 33.1587 20.129C33.0442 19.6194 32.8175 19.1489 32.6351 18.6644C31.1666 14.7562 29.6858 10.8524 28.2031 6.94958C28.0625 6.58015 27.9316 6.22262 27.5501 5.97894C26.3134 5.18943 25.1148 4.3386 23.8805 3.54501C23.2245 3.12304 22.6252 2.67761 22.382 1.8884C22.3693 1.84711 22.3264 1.8152 22.2976 1.77892C21.6744 3.30134 21.0711 4.8322 20.3927 6.33116C20.3763 6.34837 20.3542 6.36182 20.3452 6.38152C19.4848 8.28869 18.4751 10.1164 17.4217 11.9191C16.3459 13.7609 15.1647 15.5342 13.9143 17.2599C13.0114 18.5064 12.0764 19.7276 11.0745 20.8966C10.8803 21.1234 10.6272 21.3136 10.519 21.6113C12.046 21.6151 13.5731 21.616 15.1002 21.6267C15.2401 21.6276 15.3121 21.5741 15.3676 21.4637C15.5314 21.1387 15.8245 21.0586 16.1499 21.0567C17.0076 21.0527 17.8653 21.048 18.7229 21.0592C19.0099 21.063 19.3393 21.0827 19.5015 21.3483C19.6703 21.6242 19.8871 21.6351 20.147 21.6232C20.3698 21.6132 20.5928 21.6142 20.8158 21.6104C22.06 21.6148 23.3045 21.6195 24.549 21.6239C25.2218 21.6076 25.5587 21.3173 25.693 20.636C25.7522 20.3351 25.8081 20.0332 25.8782 19.6645C25.9765 19.8656 26.041 19.9976 26.1055 20.1293C26.1058 20.1527 26.1065 20.1762 26.1071 20.1993C26.256 20.2287 26.292 20.2957 26.1775 20.413C26.4129 21.272 26.6428 22.1325 26.8854 22.9896C27.2334 24.2192 27.5904 25.4463 27.944 26.6744C28.4292 26.6265 28.8538 26.3857 29.2999 26.2224C31.0001 25.599 32.6903 24.948 34.3843 24.3074C34.4928 24.2664 34.6017 24.2248 34.7103 24.1832C34.5254 23.6865 34.3452 23.1882 34.155 22.6936Z" fill="#FAF9F7"/>
<path d="M26.1775 20.413C26.0934 20.362 26.1077 20.2782 26.1071 20.1993C26.256 20.2287 26.292 20.2957 26.1775 20.413Z" fill="#FAF9F7"/>
<path d="M17.4332 8.60556C17.096 7.93022 16.7659 7.25081 16.4198 6.58015C15.9265 5.62547 15.4684 4.65453 15.0341 3.67139C14.8099 3.16402 14.589 2.65508 14.3703 2.14553C14.1957 1.73857 14.2165 1.70729 14.6439 1.70729C16.6775 1.70729 18.7112 1.70854 20.7448 1.70916C20.6598 2.25438 20.3725 2.72328 20.1632 3.21813C19.7506 4.19439 19.3024 5.15627 18.8386 6.10907C18.4574 6.89265 18.0328 7.65464 17.6264 8.42601C17.5833 8.50765 17.5526 8.60619 17.4332 8.60556Z" fill="#FAF9F7"/>
</g>
</g>
<defs>
<clipPath id="clip0_0_27">
<rect width="35" height="35" fill="white"/>
</clipPath>
</defs>
</svg>
