<svg preserveAspectRatio="none" width="100%" height="100%" overflow="visible" style="display: block;" viewBox="0 0 26 26" fill="none" xmlns="http://www.w3.org/2000/svg">
<g id="Layer_1" clip-path="url(#clip0_0_34)">
<path id="Vector" d="M12.093 0C12.702 0 13.3111 0 13.9201 0C13.9681 0.0122716 14.0153 0.0308649 14.0638 0.0358852C14.3156 0.0619158 14.5692 0.0730718 14.8193 0.110444C15.7814 0.254357 16.72 0.489563 17.6299 0.838374C18.9906 1.35973 20.232 2.08469 21.345 3.02365C22.5243 4.01839 23.4999 5.18568 24.2735 6.52254C24.7874 7.41056 25.1904 8.34544 25.4782 9.32921C25.7417 10.2302 25.925 11.1465 25.965 12.0875C25.967 12.1359 25.9877 12.1835 25.9998 12.2313V13.9061C25.9691 14.1133 25.9321 14.3197 25.9088 14.5277C25.8374 15.1666 25.7171 15.7954 25.5485 16.4157C25.1565 17.8567 24.5265 19.1874 23.6747 20.4105C22.8964 21.5281 21.9614 22.4992 20.8789 23.3294C19.8307 24.133 18.6842 24.7557 17.4486 25.2131C16.2853 25.6436 15.0791 25.8927 13.8426 25.9727C12.7423 26.0437 11.6469 25.9768 10.5623 25.7674C9.48738 25.5601 8.45427 25.2234 7.46486 24.7563C6.08311 24.1039 4.85365 23.2315 3.77889 22.1471C2.64296 21.001 1.74671 19.6881 1.09553 18.2094C0.455515 16.7559 0.0947838 15.2345 0.0159435 13.6512C-0.0482072 12.3618 0.0778629 11.0854 0.396571 9.83197C0.704308 8.62173 1.17549 7.47936 1.81012 6.4015C2.48974 5.2476 3.33207 4.22813 4.31999 3.33063C5.77556 2.00808 7.45668 1.07674 9.33974 0.51485C10.0279 0.309579 10.7293 0.158601 11.4459 0.0868309C11.6624 0.0650767 11.8773 0.0293775 12.093 0Z" fill="var(--fill-0, #A1824A)"/>
<path id="Vector_2" d="M14.7597 16.7506C14.6262 16.8324 14.5139 16.9212 14.5429 17.0849C14.5853 17.3238 14.4936 17.5439 14.4763 17.7737C14.4655 17.9169 14.4521 18.0603 14.4272 18.2014C14.4162 18.2633 14.3885 18.3366 14.3435 18.376C14.1278 18.5647 13.9157 18.773 13.5854 18.6861C13.5696 18.682 13.5512 18.6878 13.5349 18.6846C13.3301 18.6447 13.2057 18.7313 13.1189 18.9171C13.0689 19.024 13.0497 19.1218 13.0778 19.2331C13.1068 19.3477 13.1247 19.4657 13.163 19.5769C13.2184 19.738 13.1753 19.8579 13.0708 19.9906C12.7838 20.3551 12.4683 20.6998 12.2612 21.123C12.2316 21.1836 12.1574 21.2338 12.0921 21.2637C11.8024 21.3968 11.5315 21.5813 11.1955 21.593C11.1237 21.5956 11.0401 21.6174 11.0415 21.7245C11.0428 21.8264 11.1304 21.8074 11.1871 21.8319C11.2026 21.8386 11.2186 21.8444 11.2342 21.8509C11.3372 21.8935 11.366 21.94 11.3324 22.0428C11.3149 22.0963 11.2816 22.1508 11.2407 22.1891C11.1734 22.2525 11.0944 22.3033 11.0378 22.346C11.118 22.5521 11.2368 22.598 11.3958 22.603C11.5404 22.6076 11.5566 22.6307 11.5419 22.7765C11.5302 22.8923 11.4995 23.0081 11.4633 23.1193C11.4099 23.283 11.4322 23.4124 11.5819 23.5161C11.6788 23.5832 11.7611 23.671 11.8558 23.7418C11.9447 23.8084 11.9186 23.885 11.895 23.9679C11.871 24.0518 11.8086 24.0622 11.737 24.0613C11.5932 24.0596 11.4493 24.0542 11.3056 24.0581C11.1968 24.0611 11.1142 24.0206 11.0317 23.9516C10.4659 23.4778 10.4746 23.4732 10.0927 22.8427C9.93592 22.584 9.83811 22.3245 9.91156 22.0316C10.0053 21.6579 9.90152 21.3558 9.63692 21.0932C9.55046 21.0073 9.54005 20.9067 9.56589 20.7894C9.61331 20.5752 9.64845 20.3584 9.68861 20.1427C9.70033 20.0791 9.69754 20.018 9.61777 20.0074C9.45488 19.986 9.448 19.8741 9.45172 19.7467C9.45618 19.5946 9.45284 19.4423 9.45265 19.29C9.45265 18.8841 9.45302 18.4781 9.45209 18.0722C9.45209 17.9976 9.46492 17.9175 9.38794 17.8654C9.10382 17.673 8.86395 17.4047 8.50304 17.3433C8.38199 17.3227 8.33383 17.25 8.32881 17.1328C8.3223 16.9833 8.25461 16.8617 8.15922 16.7468C7.93256 16.4735 7.71668 16.1913 7.4915 15.9166C7.42214 15.8319 7.39555 15.7495 7.41526 15.6383C7.44743 15.4561 7.46621 15.2713 7.48202 15.0866C7.5153 14.6979 7.5034 14.6817 7.83122 14.4848C8.06495 14.3444 8.14472 14.1977 8.09284 13.9149C8.02553 13.548 8.11367 13.5417 7.64416 13.5123C7.04486 13.4748 7.21575 13.5568 6.81485 13.1068C6.39034 12.6305 6.39592 12.6254 5.76519 12.4953C5.60937 12.4631 5.61346 12.4626 5.59468 12.3086C5.58836 12.2569 5.56624 12.1757 5.53258 12.1645C5.44277 12.1349 5.31558 12.0801 5.25701 12.1801C5.19918 12.2789 5.13987 12.2554 5.06995 12.2391C4.83157 12.1835 4.59524 12.1182 4.35593 12.0682C4.22074 12.0399 4.12982 11.9723 4.06362 11.8529C4.00226 11.7423 3.9342 11.6337 3.85555 11.5348C3.76351 11.4187 3.75142 11.3109 3.84458 11.1939C3.92026 11.0989 3.89757 11.0162 3.82859 10.923C3.69768 10.7466 3.58798 10.554 3.45168 10.3822C3.29846 10.189 3.22204 9.97458 3.20121 9.73306C3.19322 9.64102 3.17444 9.54843 3.14822 9.45992C3.12088 9.3677 3.03647 9.40098 2.97622 9.40972C2.95335 9.41307 2.91821 9.47145 2.92211 9.50008C2.96413 9.80724 2.96506 10.1257 3.19322 10.3794C3.27689 10.4723 3.331 10.5917 3.40166 10.6969C3.47306 10.8035 3.44182 10.918 3.39757 11.0115C3.35034 11.1116 3.24844 11.0338 3.16942 11.0331C3.03386 11.0316 2.95093 10.9654 2.89626 10.8464C2.86428 10.7767 2.82616 10.71 2.78024 10.6486C2.55245 10.345 2.4487 10.0071 2.5056 9.62931C2.54818 9.34725 2.46153 9.15499 2.16904 9.08489C2.16104 9.08303 2.15416 9.0769 2.14635 9.07392C2.05468 9.03953 2.02121 8.97278 2.02456 8.87646C2.02921 8.74259 2.02567 8.60853 2.02567 8.45588C0.046672 12.845 1.01953 19.6061 6.82749 23.1615C12.385 26.5636 18.9901 24.646 22.1781 20.5304C22.1047 20.5256 22.039 20.5176 21.9734 20.5179C21.8745 20.5187 21.8395 20.4674 21.8402 20.3757C21.8415 20.2234 21.8336 20.071 21.8415 19.919C21.849 19.7766 21.8164 19.656 21.7212 19.5459C21.6329 19.4438 21.5621 19.327 21.4767 19.2222C21.4087 19.1387 21.3798 19.0489 21.383 18.9418C21.3877 18.7728 21.3719 18.6023 21.3873 18.4346C21.4061 18.2315 21.3471 18.0768 21.188 17.9467C21.1206 17.8916 21.0557 17.8052 21.0386 17.723C21.0044 17.5586 21.0024 17.3918 21.1013 17.234C21.1997 17.0771 21.269 16.9019 21.3644 16.7427C21.439 16.6182 21.4317 16.5144 21.3585 16.391C21.1428 16.0276 20.9412 15.6562 20.7272 15.2917C20.642 15.1467 20.6048 15.0063 20.6392 14.8351C20.6788 14.6372 20.6846 14.4325 20.7084 14.2313C20.7183 14.1475 20.6859 14.1014 20.6037 14.0921C20.4948 14.0798 20.3854 14.0687 20.2761 14.0601C20.0957 14.0462 19.9235 14.0183 19.8073 13.855C19.7486 13.7725 19.6628 13.7462 19.5622 13.7522C19.4695 13.7578 19.3754 13.7464 19.2835 13.7567C19.2287 13.7628 19.1591 13.7814 19.1268 13.8201C19.0035 13.9673 18.8469 13.9894 18.6705 13.9792C18.5271 13.971 18.383 13.9764 18.2393 13.9783C18.1889 13.9788 18.1238 13.9682 18.0911 13.9947C17.9548 14.104 17.7993 14.0499 17.652 14.0636C17.5369 14.0744 17.4601 14.0155 17.386 13.906C17.1392 13.5415 16.8495 13.2089 16.5178 12.9194C16.415 12.8296 16.3592 12.735 16.3618 12.6094C16.3666 12.3728 16.3668 12.1359 16.37 11.899C16.3711 11.8125 16.3798 11.7335 16.4782 11.6915C16.6147 11.6331 16.6028 11.5033 16.6016 11.386C16.6015 11.3618 16.565 11.317 16.5459 11.3172C16.3592 11.3204 16.3367 11.1811 16.3034 11.0493C16.2597 10.8765 16.2582 10.8747 16.4133 10.7613C16.7409 10.522 17.0665 10.279 17.401 10.0495C17.5258 9.96399 17.5849 9.87195 17.5754 9.71837C17.5661 9.56795 17.5342 9.38462 17.6039 9.27306C17.6796 9.15202 17.8636 9.10088 17.9957 9.01219C18.1496 8.90863 18.304 8.87795 18.4962 8.90063C18.7156 8.92666 18.954 8.97147 19.1625 8.83165C19.3438 8.71005 19.5412 8.6513 19.7603 8.66282C19.8103 8.66543 19.8611 8.65223 19.9114 8.64776C20.1554 8.6262 20.3997 8.60611 20.6437 8.5838C20.7367 8.57525 20.7882 8.6089 20.7872 8.70596C20.7871 8.73106 20.7863 8.75616 20.7872 8.78108C20.7921 8.93392 20.7973 9.08675 20.8025 9.2394C20.9451 9.28552 21.0872 9.3333 21.2305 9.37737C21.5028 9.46104 21.7992 9.47498 22.0355 9.66203C22.0585 9.68025 22.0996 9.67839 22.1327 9.68062C22.1956 9.68471 22.2322 9.65571 22.2285 9.58394C22.2274 9.56088 22.2265 9.53783 22.2279 9.51477C22.2402 9.31712 22.235 9.30913 22.3845 9.28793C22.8183 9.22639 22.8256 9.22806 23.1742 9.48688C23.2354 9.53225 23.293 9.58319 23.3583 9.6215C23.4072 9.65013 23.4652 9.67821 23.5199 9.67951C23.7735 9.68546 24.0273 9.68564 24.2811 9.68062C24.4074 9.67821 24.4317 9.64195 24.3934 9.52314C24.3185 9.29016 24.2341 9.05998 24.1608 8.82645C24.1261 8.71544 24.0571 8.68495 23.9503 8.69629C23.8496 8.70708 23.7477 8.71749 23.6469 8.71321C23.5829 8.71042 23.5022 8.69927 23.4598 8.65929C23.2954 8.50367 23.1175 8.3525 23.1456 8.08439C23.1532 8.0115 23.1761 7.90031 23.0595 7.87707C22.9864 7.86257 22.8358 7.98101 22.8092 8.05966C22.7876 8.12343 22.775 8.19018 22.7571 8.25526C22.724 8.37593 22.6902 8.49623 22.6454 8.65762C22.5755 8.59105 22.5396 8.5561 22.5029 8.52189C22.2893 8.32257 22.0929 8.11915 22.1372 7.78578C22.1446 7.72981 22.0781 7.65209 22.0277 7.60263C21.901 7.47843 21.7651 7.36352 21.6305 7.24768C21.5933 7.2157 21.5487 7.17331 21.5055 7.17108C21.3668 7.16383 21.2246 7.1404 21.0868 7.18856C21.1154 7.46541 21.2283 7.6625 21.4892 7.7603C21.5753 7.79247 21.653 7.84751 21.7326 7.89548C21.7757 7.92132 21.8218 7.94828 21.8529 7.98603C21.8745 8.01243 21.8903 8.08197 21.8778 8.09127C21.7767 8.1675 21.8124 8.27348 21.8016 8.37091C21.7956 8.42539 21.7856 8.49623 21.7495 8.52765C21.5217 8.72586 21.2173 8.6381 21.111 8.35027C21.2484 8.26418 21.4762 8.47838 21.5706 8.20413C21.3456 8.0524 21.1255 7.89659 20.8975 7.75324C20.7508 7.66101 20.6242 7.56024 20.5976 7.35757C20.547 7.39662 20.5093 7.41726 20.4823 7.44756C20.3399 7.6084 20.1855 7.71661 19.9542 7.62364C19.9139 7.60747 19.8265 7.63461 19.7997 7.67068C19.5991 7.94084 19.3421 8.17382 19.2181 8.49511C19.1706 8.61801 19.0965 8.67008 18.9743 8.67305C18.7798 8.6777 18.5849 8.67435 18.3912 8.68755C18.2391 8.69797 18.1113 8.6407 17.9813 8.5786C17.9159 8.54736 17.8752 8.50478 17.8649 8.42762C17.8426 8.26028 17.7934 8.09443 17.7917 7.92746C17.7906 7.81571 17.833 7.69114 17.8928 7.59575C17.9284 7.53923 18.0347 7.52398 18.1115 7.49739C18.3495 7.41484 18.5885 7.41298 18.8306 7.48754C18.9008 7.50911 18.9791 7.50464 19.0619 7.51283C19.079 7.46467 19.0952 7.42674 19.1058 7.38732C19.1184 7.34009 19.126 7.29157 19.1353 7.24601C18.9737 7.17697 18.9067 7.05438 18.9345 6.87824C18.9384 6.85313 18.9384 6.82748 18.9429 6.80256C18.9747 6.62258 18.9799 6.59599 19.1625 6.59022C19.4907 6.58 19.7179 6.4359 19.8609 6.14659C19.8683 6.13171 19.8823 6.12 19.8899 6.10512C19.9709 5.94931 20.0952 5.8807 20.2739 5.86211C20.4181 5.84705 20.5552 5.82976 20.6995 5.86155C20.7947 5.88256 20.896 5.87512 21.0109 5.88145C20.9912 5.72247 20.9762 5.59027 20.9578 5.45863C20.949 5.39635 20.9062 5.37069 20.8486 5.38984C20.7607 5.41903 20.6759 5.45826 20.5885 5.4895C20.4609 5.53505 20.4609 5.53338 20.401 5.40434C20.3875 5.37534 20.3676 5.32681 20.3575 5.2965C20.3168 5.17527 20.2536 5.08156 20.1035 5.08379C20.0169 5.08509 19.9934 5.02132 19.9736 4.95382C19.9403 4.84096 19.9479 4.74316 20.0394 4.65224C20.1305 4.56169 20.2186 4.47709 20.3464 4.43804C20.4509 4.40606 20.5535 4.36386 20.6517 4.31551C20.8469 4.21939 20.8715 4.05893 20.7064 3.92952C20.3871 3.67944 20.065 3.4327 19.7387 3.19229C19.3432 2.90093 18.9157 2.66089 18.4825 2.43052C17.7562 2.04415 16.9936 1.74647 16.2022 1.52874C15.584 1.35843 14.9586 1.2082 14.3153 1.16413C13.8352 1.13122 13.3536 1.08083 12.8737 1.09031C12.343 1.10073 11.8114 1.13345 11.2831 1.21415C10.5629 1.3244 9.85857 1.49137 9.16946 1.72342C8.35781 1.99674 7.58838 2.3634 6.8552 2.80462C6.5932 2.96229 6.34367 3.14042 6.04318 3.33936C6.23043 3.33936 6.35706 3.33527 6.4835 3.34104C6.54932 3.34401 6.62333 3.34885 6.67781 3.38027C6.84237 3.4751 7.02032 3.51898 7.20384 3.55226C7.29626 3.56899 7.38495 3.59149 7.41192 3.70603C7.41973 3.73894 7.46249 3.78709 7.49076 3.78821C7.71463 3.7962 7.93963 3.82149 8.16425 3.78932C8.149 3.65285 8.09098 3.59409 7.96436 3.59075C7.78882 3.5861 7.61385 3.56546 7.43144 3.55114C7.5841 3.26871 7.55472 3.22 7.25647 3.21367C7.1475 3.21144 7.03203 3.23784 6.89034 3.16886C7.10976 3.00599 7.29644 2.863 7.4889 2.72802C7.5339 2.69641 7.59749 2.68023 7.65346 2.678C7.81393 2.67149 7.97477 2.678 8.13542 2.67465C8.22877 2.67261 8.2879 2.71723 8.33531 2.79737C8.36934 2.85482 8.41174 2.90707 8.45506 2.95801C8.49318 3.00301 8.53279 3.07497 8.5815 3.08426C8.72989 3.1129 8.88441 3.1393 9.03279 3.12517C9.10977 3.11773 9.18303 3.0283 9.24979 2.96694C9.42086 2.80983 9.42736 2.80815 9.61833 2.99316C9.52368 3.08835 9.42439 3.17965 9.33551 3.27987C9.24979 3.37655 9.15031 3.41206 9.02182 3.40946C8.90077 3.40686 8.7734 3.38269 8.657 3.43642C8.71892 3.87058 8.64677 3.78858 9.03874 3.79509C9.12316 3.79657 9.20888 3.79843 9.292 3.78672C9.33662 3.7804 9.40542 3.75344 9.41472 3.72164C9.45656 3.57922 9.57128 3.58424 9.67895 3.57085C9.755 3.56137 9.83439 3.56546 9.90691 3.54445C9.94633 3.53311 9.98799 3.49071 9.99951 3.4513C10.0374 3.32263 10.0105 3.29046 9.86377 3.25086C9.83235 3.24231 9.80241 3.22892 9.77303 3.21814C9.82342 2.94017 9.87791 2.88513 10.123 2.87862C10.2582 2.87509 10.3937 2.88085 10.5287 2.88792C10.6327 2.89331 10.7414 2.8736 10.8753 2.9357C10.757 3.04485 10.6641 3.14116 10.5603 3.2239C10.4627 3.30162 10.464 3.39347 10.4919 3.49722C10.5213 3.60692 10.6066 3.63611 10.705 3.64151C10.7786 3.64541 10.8526 3.64225 10.925 3.64225C10.925 3.5253 10.9324 3.41653 10.9231 3.30943C10.9123 3.18485 10.9582 3.11513 11.0674 3.04708C11.3074 2.8974 11.5752 2.87806 11.8413 2.83734C12.0577 2.80425 12.2567 2.83455 12.4516 2.93849C12.6152 3.02569 12.7844 3.10844 12.9603 3.16496C13.1903 3.23896 13.3292 3.35535 13.2732 3.61752C13.2716 3.62552 13.2705 3.63686 13.2745 3.64244C13.3013 3.67869 13.3225 3.72704 13.359 3.74637C13.4369 3.78784 13.5373 3.78077 13.6169 3.85124C13.588 3.91167 13.5587 3.96243 13.5386 4.01672C13.4949 4.13553 13.4157 4.19893 13.2876 4.17551C13.0404 4.13033 12.8842 4.21492 12.8313 4.47077C12.8182 4.53306 12.7755 4.5669 12.6987 4.54812C12.356 4.46426 12.0122 4.38524 11.6105 4.29079C11.9354 4.11099 12.2119 3.95796 12.4923 3.80271C12.3366 3.60283 12.1762 3.4764 11.922 3.55412C11.8264 3.58331 11.7219 3.59372 11.6215 3.59409C11.4638 3.59446 11.3463 3.65898 11.2558 3.78207C11.1641 3.90683 11.0447 3.97228 10.8865 3.96298C10.8459 3.96057 10.8047 3.97135 10.7303 3.9799C10.7864 4.08142 10.8305 4.16082 10.8755 4.24207C10.7617 4.31291 10.6168 4.2826 10.546 4.44678C10.4895 4.57768 10.2762 4.50851 10.2336 4.35605C10.2167 4.29525 10.1987 4.23482 10.1782 4.16435C9.99208 4.22645 9.81338 4.26122 9.65905 4.34266C9.33792 4.51205 9.02889 4.70467 8.7178 4.89228C8.68972 4.9092 8.66183 4.96256 8.66722 4.99324C8.70906 5.23403 8.78976 5.45194 9.05752 5.52836C9.13022 5.549 9.20572 5.56034 9.28028 5.57298C9.35485 5.58563 9.42792 5.59753 9.50249 5.60385C9.61665 5.61352 9.67114 5.6639 9.66333 5.78476C9.65515 5.91101 9.65905 6.03856 9.66351 6.16518C9.66742 6.27414 9.70833 6.30928 9.80427 6.27284C9.86136 6.25108 9.93611 6.2046 9.95098 6.15402C10.0533 5.80559 10.2957 5.63471 10.6379 5.57837C10.7543 5.55922 10.7844 5.48504 10.7816 5.37812C10.7775 5.21748 10.7842 5.05665 10.7797 4.896C10.7768 4.7863 10.8019 4.69742 10.9026 4.63755C10.9532 4.60762 10.9986 4.56801 11.0434 4.52952C11.1172 4.46575 11.1959 4.44883 11.2961 4.48062C11.474 4.53715 11.6552 4.58196 11.8394 4.61115C11.9566 4.62974 12.0148 4.67883 12.0018 4.79411C11.988 4.91608 11.9822 5.0388 11.9726 5.16579C12.3013 5.2251 12.5086 4.95327 12.7799 4.91013C12.7933 4.92779 12.8022 4.93412 12.8028 4.94099C12.8088 5.02522 12.8203 5.10964 12.8173 5.19368C12.8078 5.4564 12.8653 5.6758 13.1451 5.77714C13.2626 5.81972 13.3 5.90543 13.2863 6.03726C13.2545 6.34461 13.2944 6.28511 13.0213 6.38904C13.0135 6.39202 13.0036 6.39202 12.9973 6.39667C12.953 6.42921 12.8828 6.45524 12.8712 6.49707C12.8471 6.58539 12.9417 6.59803 12.9977 6.62667C13.1027 6.68059 13.2141 6.72242 13.3181 6.7782C13.3906 6.81725 13.4112 6.94647 13.3716 7.05134C13.3387 7.13836 13.2612 7.12571 13.2 7.10991C13.0204 7.06343 12.8417 7.01136 12.6661 6.95149C12.5012 6.89534 12.477 6.75161 12.6038 6.62276C12.6273 6.59896 12.6726 6.57925 12.6747 6.5549C12.6797 6.49354 12.6881 6.40838 12.6537 6.3738C12.607 6.32676 12.5363 6.33661 12.4928 6.42084C12.4703 6.46416 12.4086 6.5006 12.3578 6.51325C12.2519 6.53965 12.1408 6.5443 12.0332 6.56531C11.9532 6.58093 11.914 6.54895 11.871 6.48294C11.7786 6.3407 11.5782 6.28752 11.4318 6.35279C11.3604 6.38458 11.3383 6.44222 11.3404 6.51734C11.3422 6.58502 11.3647 6.6276 11.4361 6.64377C11.5313 6.66534 11.6247 6.69472 11.7238 6.72205C11.7076 6.75849 11.7016 6.78434 11.6868 6.80349C11.5795 6.94257 11.58 6.93941 11.3945 6.86745C11.316 6.83714 11.2329 6.81316 11.1645 6.89869C11.0348 7.06064 10.821 7.14709 10.7518 7.36631C10.7396 7.40517 10.6793 7.43269 10.6367 7.4576C10.5347 7.51729 10.4285 7.57009 10.3266 7.63015C10.2033 7.70285 10.0666 7.76291 9.96437 7.85885C9.74886 8.06114 9.54953 8.28092 9.34945 8.4992C9.30687 8.54569 9.26485 8.61671 9.26634 8.67528C9.27098 8.86716 9.15514 8.95734 9.01289 9.04901C8.75071 9.21784 8.47868 9.37328 8.26354 9.60885C8.17726 9.70349 8.1304 9.792 8.13877 9.92215C8.15011 10.0966 8.14156 10.2723 8.14156 10.4787C7.985 10.4074 7.83903 10.3474 7.7005 10.2734C7.66554 10.2548 7.64583 10.1934 7.63523 10.1479C7.62408 10.0997 7.63431 10.0469 7.63152 9.99615C7.62352 9.85094 7.6172 9.8396 7.4664 9.83811C7.09432 9.83439 6.72206 9.83551 6.34999 9.83811C6.29197 9.83848 6.2295 9.84592 6.17725 9.86897C5.78825 10.0397 5.40446 10.2185 5.26891 10.6757C5.26184 10.6997 5.24492 10.7205 5.236 10.7442C5.13745 11.0065 5.04039 11.2655 5.22968 11.5351C5.28118 11.6086 5.3167 11.6727 5.41711 11.6757C5.48405 11.6777 5.55024 11.6984 5.617 11.7086C5.77245 11.7324 5.91246 11.7142 6.04579 11.611C6.21258 11.4821 6.3935 11.3709 6.57238 11.2583C6.57294 11.2579 6.57349 11.2575 6.57424 11.2572C6.67037 11.1975 6.79849 11.2514 6.82582 11.3613C6.83382 11.3936 6.83995 11.426 6.84256 11.4587C6.84665 11.5097 6.79793 11.5654 6.77134 11.6182C6.7189 11.7224 6.66516 11.8259 6.5999 11.9531C6.77431 11.9834 6.92418 12.0011 7.06978 12.0366C7.28436 12.0888 7.27506 12.057 7.28715 12.2729C7.30035 12.509 7.32434 12.745 7.33159 12.9813C7.33587 13.1206 7.39685 13.1793 7.57443 13.1786C7.73453 13.1778 7.89277 13.2085 8.04431 13.2597C8.19586 13.3108 8.29273 13.3037 8.37957 13.1951C8.5062 13.0367 8.64156 12.8852 8.77749 12.7344C8.81542 12.6924 8.87306 12.6277 8.91248 12.6338C9.15291 12.6706 9.39129 12.7219 9.62837 12.7764C9.66184 12.784 9.69494 12.8315 9.71186 12.8679C9.80911 13.0791 9.97516 13.134 10.1903 13.0921C10.2312 13.0841 10.2749 13.0906 10.3169 13.0867C10.3915 13.0799 10.4765 13.0892 10.5365 13.0553C10.5826 13.0293 10.5973 12.9475 10.6248 12.8932C10.8701 12.9571 11.0482 13.0808 11.1589 13.3006C11.2156 13.4131 11.3002 13.5112 11.3621 13.6217C11.4145 13.7152 11.4848 13.7492 11.5895 13.7446C11.7245 13.7384 11.8606 13.7515 11.9953 13.7433C12.128 13.7351 12.2076 13.7795 12.2809 13.8983C12.4224 14.128 12.523 14.3641 12.5012 14.6367C12.4887 14.7921 12.5626 14.8565 12.699 14.9081C13.3307 15.148 13.3292 15.1515 14.0271 15.1571C14.0523 15.1573 14.0778 15.1573 14.1031 15.1579C14.4456 15.1638 14.3802 15.1261 14.5351 15.4055C14.636 15.5877 14.7601 15.7138 14.9685 15.7495C15.099 15.7718 15.1881 15.833 15.1513 15.9953L15.107 16.4438L14.7612 16.7494L14.7597 16.7506Z" fill="var(--fill-0, #FAF9F7)"/>
<path id="Vector_3" d="M21.6891 4.85974C21.6891 5.03266 21.6868 5.15779 21.6898 5.28274C21.6919 5.36864 21.6575 5.42386 21.5792 5.46049C21.473 5.51014 21.367 5.56201 21.2675 5.62356C21.2337 5.64457 21.195 5.70444 21.203 5.73456C21.2125 5.76989 21.2696 5.8147 21.3077 5.81637C21.5171 5.82604 21.7272 5.82734 21.9369 5.82436C22.028 5.82306 22.2378 5.5635 22.2227 5.48206C22.2198 5.46663 22.2106 5.45045 22.2 5.43837C22.0407 5.2569 21.8804 5.07617 21.6891 4.85974Z" fill="var(--fill-0, #FAF9F7)"/>
<path id="Vector_4" d="M8.35335 7.05134C8.35409 7.04576 8.35484 7.04037 8.35558 7.03479C8.41471 7.03479 8.4744 7.04074 8.5326 7.0333C8.60121 7.02438 8.69586 7.07514 8.73007 6.97362C8.75592 6.89739 8.71074 6.84235 8.66611 6.77504C8.61237 6.69416 8.56774 6.6527 8.47217 6.66162C8.40523 6.66776 8.33308 6.64861 8.27079 6.66646C8.13468 6.70532 8.00117 6.75608 7.87138 6.81279C7.84182 6.8258 7.81374 6.88493 7.81802 6.91895C7.82136 6.94629 7.87157 6.98273 7.90578 6.98868C8.05417 7.0149 8.20385 7.03144 8.35335 7.05134Z" fill="var(--fill-0, #FAF9F7)"/>
<path id="Vector_5" d="M8.41341 7.15304C8.24625 7.17647 8.11869 7.11195 8.01028 7.2079C7.87826 7.32466 7.76447 7.45314 7.75647 7.64763C7.75257 7.74022 7.81486 7.75789 7.87064 7.78912C7.92828 7.82129 7.96343 7.78578 7.99448 7.74208C8.1239 7.55968 8.2535 7.37765 8.41341 7.15304Z" fill="var(--fill-0, #FAF9F7)"/>
<path id="Vector_6" d="M7.28901 6.25592C7.55082 6.27135 7.61813 6.12167 7.65439 5.93314C7.66926 5.85597 7.6384 5.82381 7.57443 5.8054C7.40485 5.75613 7.26521 5.81693 7.12631 5.92867C7.18227 6.04135 7.23731 6.15198 7.28901 6.25592Z" fill="var(--fill-0, #FAF9F7)"/>
<path id="Vector_7" d="M6.29662 4.17755V4.17328C6.34757 4.17328 6.39815 4.17328 6.44873 4.17328C6.46565 4.17328 6.48257 4.17346 6.4993 4.17123C6.60808 4.15543 6.6832 4.0831 6.69696 3.97526C6.70384 3.92189 6.69138 3.88173 6.62519 3.86463C6.41358 3.80996 6.24196 3.9535 6.04634 3.97823C6.03128 3.98009 6.01529 4.05112 6.01734 4.08886C6.01882 4.11452 6.04802 4.15598 6.07033 4.16007C6.14434 4.17346 6.22113 4.17253 6.29662 4.17755Z" fill="var(--fill-0, #FAF9F7)"/>
<path id="Vector_8" d="M8.96399 7.59854C8.84238 7.65823 8.75183 7.72758 8.65179 7.74599C8.49355 7.77536 8.47812 7.8674 8.48426 7.99253C8.89501 8.0247 8.98649 7.95869 8.96399 7.59854Z" fill="var(--fill-0, #FAF9F7)"/>
<path id="Vector_9" d="M6.34832 4.76529C6.44129 4.75915 6.52571 4.75952 6.60789 4.74669C6.69492 4.73312 6.70273 4.6634 6.69268 4.59218C6.6832 4.52469 6.62984 4.51948 6.57926 4.52711C6.49689 4.53919 6.41321 4.55184 6.33456 4.57731C6.24363 4.60687 6.15717 4.65075 6.06884 4.68831C6.13653 4.82534 6.26111 4.73889 6.34832 4.76529Z" fill="var(--fill-0, #FAF9F7)"/>
<path id="Vector_10" d="M8.96548 7.15955C8.7033 7.15156 8.68619 7.16922 8.69921 7.38304C8.70609 7.49386 8.73918 7.52231 8.83959 7.4907C8.89501 7.47322 8.94707 7.4431 8.99783 7.41391C9.07593 7.36891 9.09768 7.28989 9.06421 7.21812C9.04599 7.17908 8.97478 7.16457 8.96548 7.15955Z" fill="var(--fill-0, #FAF9F7)"/>
<path id="Vector_11" d="M9.22264 7.41837C9.20033 7.71494 9.24421 7.76328 9.50118 7.75361C9.56478 7.75119 9.64194 7.77146 9.64789 7.66529C9.65291 7.57586 9.62521 7.52547 9.52926 7.50762C9.43108 7.4894 9.33644 7.4524 9.22264 7.41837Z" fill="var(--fill-0, #FAF9F7)"/>
<path id="Vector_12" d="M23.6171 7.60207C23.5413 7.75212 23.5706 7.87 23.5695 7.98119C23.5675 8.16657 23.5727 8.16731 23.7488 8.15727C23.7813 8.15541 23.8133 8.14556 23.8717 8.13459C23.7886 7.96093 23.7114 7.79954 23.6171 7.60226V7.60207Z" fill="var(--fill-0, #FAF9F7)"/>
<path id="Vector_13" d="M18.997 5.03824C19.0957 5.49489 19.1969 5.92458 19.6773 6.1107C19.5868 6.32043 19.4451 6.44018 19.2168 6.44297C19.0654 6.44482 18.914 6.45282 18.7629 6.45152C18.7253 6.45115 18.6563 6.42679 18.6558 6.41136C18.6519 6.31244 18.6612 6.21259 18.6697 6.11349C18.677 6.02982 18.7432 6.009 18.8099 5.99096C18.864 5.97646 18.9326 5.9839 18.9393 5.90041C18.9455 5.82548 18.9159 5.77249 18.851 5.73363C18.7645 5.68175 18.6829 5.6217 18.5957 5.57112C18.5046 5.51813 18.4641 5.44376 18.4825 5.34075C18.5027 5.22715 18.5516 5.13158 18.6738 5.10146C18.7707 5.07747 18.87 5.0626 18.9972 5.03805L18.997 5.03824Z" fill="var(--fill-0, #A1824A)"/>
<path id="Vector_14" d="M18.0429 6.30017C17.8508 6.29757 17.8181 6.26187 17.8289 6.11851C17.8458 5.89167 18.0938 5.62058 18.3173 5.58637C18.3501 5.58135 18.3869 5.57317 18.4165 5.58265C18.5018 5.60998 18.6126 5.61909 18.6366 5.72322C18.6613 5.83106 18.6476 5.9389 18.5364 6.01067C18.4239 6.08337 18.3209 6.17095 18.2067 6.24048C18.1455 6.27767 18.0697 6.29069 18.0429 6.29998V6.30017Z" fill="var(--fill-0, #A1824A)"/>
<path id="Vector_15" d="M11.7777 7.49814C11.7193 7.45481 11.6529 7.42023 11.6072 7.3678C11.5531 7.30588 11.5986 7.21719 11.6836 7.2038C11.7165 7.1986 11.7507 7.19841 11.784 7.20046C11.8742 7.20604 11.9365 7.18261 11.9869 7.09299C12.0399 6.99891 12.1942 6.98868 12.2675 7.06268C12.2838 7.07923 12.2721 7.1603 12.2569 7.16587C12.1338 7.20975 12.0637 7.29659 11.9977 7.40591C11.9675 7.45593 11.867 7.46337 11.7775 7.49832L11.7777 7.49814Z" fill="var(--fill-0, #A1824A)"/>
</g>
<defs>
<clipPath id="clip0_0_34">
<rect width="26" height="26" fill="white"/>
</clipPath>
</defs>
</svg>
