<svg preserveAspectRatio="none" width="100%" height="100%" overflow="visible" style="display: block;" viewBox="0 0 35 32" fill="none" xmlns="http://www.w3.org/2000/svg">
<g id="Layer_1" clip-path="url(#clip0_0_50)">
<path id="Union" fill-rule="evenodd" clip-rule="evenodd" d="M34.3047 0.0078125C34.6283 -0.0353667 34.8357 0.101942 35 0.357422L34.9932 0.770508C34.6552 1.17503 34.5256 1.68802 34.3281 2.16016C34.0662 2.77939 33.6135 3.09074 32.9824 3.18457C32.5182 3.25462 32.056 3.33633 31.5918 3.3916L31.5283 3.40332C31.3985 3.43888 31.3823 3.53194 31.3721 3.66699C31.3101 4.51754 31.2392 5.36528 31.165 6.21582C31.1343 6.57446 30.8105 6.85962 30.4199 6.8623C29.7606 6.86971 29.0978 6.87367 28.4385 6.85938C28.2098 6.85444 28.1475 6.92749 28.1572 7.15137C28.1738 7.55353 28.1782 7.95916 28.1543 8.36133C28.1402 8.62362 28.2478 8.65728 28.4697 8.65234C29.1866 8.64051 29.9032 8.64746 30.6201 8.64746C31.2247 8.64752 31.4252 8.85518 31.4277 9.47656V10.9639C31.4253 11.5204 31.1941 11.7465 30.6367 11.749C30.0989 11.7509 29.5611 11.7586 29.0234 11.7529L28.4863 11.7422C28.203 11.7323 28.1573 11.8339 28.1572 12.0889L28.1494 27.2197L28.3164 27.2402C28.6662 27.2993 28.7519 27.4468 28.752 27.8867C28.7544 29.036 28.7544 30.1857 28.752 31.335C28.752 31.8171 28.5728 31.9956 28.0986 31.998C26.9509 32.0005 25.805 32.0005 24.6572 31.998C24.1597 31.998 24.0049 31.8412 24.0049 31.3398C24.0024 30.1908 24.0049 29.0417 24.0049 27.8926C24.0054 27.3365 24.0719 27.2616 24.6074 27.2227L24.6084 27.2217C24.6084 22.1943 24.6035 17.1641 24.6133 12.1367C24.6132 11.8286 24.5433 11.7388 24.2295 11.7412C19.804 11.7531 15.3782 11.7531 10.9531 11.7412C10.6434 11.7412 10.5596 11.8187 10.5596 12.1367C10.5644 17.1644 10.5527 22.1949 10.5459 27.2227C11.0619 27.2661 11.1548 27.3702 11.1572 27.9072V31.3213C11.1572 31.8295 10.9901 31.9961 10.4854 31.9961C9.34934 31.9986 8.21316 31.9986 7.07715 31.9961C6.53175 31.9961 6.42871 31.8898 6.42871 31.3262C6.42627 30.1769 6.42871 29.0272 6.42871 27.8779C6.42679 27.3601 6.47717 27.2972 6.99414 27.1719L6.99707 14.3252C6.99707 13.5544 6.98536 12.7825 6.99707 12.0117C6.99941 11.7955 6.93453 11.7393 6.72754 11.7441C5.96574 11.7609 5.2032 11.7612 4.44141 11.7637C4.04332 11.7658 3.8132 11.6205 3.74902 11.2842L3.73145 11.1279C3.70755 10.5061 3.72022 9.88448 3.72949 9.2627C3.73444 8.93752 3.96093 8.61698 4.41309 8.63672L4.98437 8.65039C5.17471 8.65234 5.36531 8.65195 5.55566 8.65137L6.69922 8.65527C6.94419 8.66013 7.00673 8.58362 6.99707 8.34766C6.98756 8.14045 6.98474 7.93273 6.98535 7.72559L6.99414 7.10449C6.99899 6.92898 6.94588 6.85642 6.7627 6.86621C6.20775 6.89972 5.65504 6.84203 5.09766 6.91895C4.29311 7.03173 3.93362 6.61493 3.90039 5.6875C3.88722 5.33099 3.85403 4.97521 3.81738 4.62012L3.71191 3.55469C3.70459 3.4591 3.67855 3.42095 3.62109 3.40625L3.55176 3.39844C3.01386 3.37423 2.48469 3.27819 1.95605 3.19629C1.45129 3.11924 1.08909 2.83708 0.850586 2.39844C0.583782 1.9045 0.343496 1.39347 0.100586 0.887695C-0.147096 0.374556 0.074349 0.0201422 0.636719 0.0107422C1.28204 -0.0010486 1.89959 0.191187 2.53516 0.258789C3.18043 0.326395 3.82152 0.415678 4.4668 0.495117C5.00041 0.560253 5.53377 0.632698 6.06738 0.69043C6.62489 0.750621 7.18468 0.790953 7.74414 0.84375C8.54898 0.918249 9.35727 0.939858 10.1621 1.04102C10.6189 1.09867 11.0881 1.08481 11.5479 1.10156C12.4194 1.13511 13.2915 1.16418 14.1631 1.2002C16.5709 1.30381 18.9774 1.17075 21.3828 1.18555C22.1884 1.19108 22.993 1.11841 23.7979 1.07227L24.6035 1.03906C25.4892 1.0198 26.378 0.940055 27.2588 0.833984C28.4568 0.692809 29.6612 0.606411 30.8574 0.445312L31.3701 0.37207C32.3442 0.220098 33.3262 0.135618 34.3047 0.0078125ZM1.2998 1.07227C1.44088 1.36294 1.58048 1.64492 1.72949 1.9209L1.80957 2.04395C1.86474 2.11206 1.92422 2.15387 1.99414 2.17969L2.10742 2.20703L2.10938 2.20801C2.67501 2.29564 3.12886 2.37836 3.59668 2.39941C3.66035 2.40175 4.02513 2.40764 4.33496 2.68457C4.66548 2.98022 4.70026 3.36437 4.70898 3.47852C4.74557 3.93223 4.81932 4.51859 4.86523 5.08887L4.89941 5.65039C4.90384 5.77417 4.91672 5.86575 4.92969 5.92969C4.93865 5.92873 4.94879 5.93014 4.95898 5.92871L4.96094 5.92773C5.31263 5.8792 5.64898 5.87534 5.93359 5.87598C6.23738 5.87665 6.46654 5.88149 6.70312 5.86719H6.70898C6.88592 5.85769 7.33996 5.86063 7.6875 6.24121C8.00008 6.58355 7.99664 6.99402 7.99316 7.12598C7.98852 7.33351 7.98594 7.53375 7.98535 7.72852L7.99609 8.30176V8.30566C8.00128 8.43127 8.02451 8.89936 7.6748 9.27441C7.31176 9.66344 6.82924 9.6583 6.67871 9.65527H6.67676C6.31186 9.64725 5.94658 9.65017 5.55859 9.65137C5.28819 9.6522 5.00845 9.64949 4.72461 9.64355C4.71914 10.026 4.71467 10.3961 4.72168 10.7627C5.3899 10.7608 6.04729 10.7596 6.7041 10.7451H6.70605C6.82389 10.7423 7.27665 10.7284 7.63672 11.0771C8.00358 11.4326 7.99853 11.8937 7.99707 12.0234V12.0273C7.9855 12.7893 7.99707 13.5329 7.99707 14.3252C7.99707 16.4674 7.9967 18.6095 7.99609 20.751C7.99557 22.5781 7.99526 24.4052 7.99512 26.2324C8.2948 26.2315 8.59473 26.2315 8.89453 26.2305C9.11171 26.2297 9.32959 26.2292 9.54688 26.2285C9.55383 21.5305 9.56413 16.8331 9.55957 12.1377C9.55957 11.978 9.55811 11.4844 9.93652 11.1094C10.3131 10.7365 10.8041 10.7412 10.9531 10.7412H10.9561C12.4699 10.7453 13.9841 10.7458 15.498 10.7471C15.4326 10.7001 15.3675 10.6486 15.3076 10.5879C15.0326 10.3087 14.9113 9.9655 14.876 9.64844C13.5411 9.64713 12.2138 9.64479 10.8838 9.65625H10.876C10.7408 9.65625 10.2609 9.66034 9.89648 9.28711C9.52206 8.90333 9.54982 8.41442 9.55762 8.27344L9.55859 8.27051C9.57803 7.93879 9.57937 7.60951 9.55859 7.29102V7.28418C9.549 7.1211 9.52532 6.63186 9.89648 6.24414C10.2652 5.85935 10.7526 5.85796 10.918 5.85938L13.3818 5.86816C13.919 5.86816 14.457 5.86773 14.9961 5.86719C15.0659 5.69574 15.167 5.52734 15.3125 5.37695C15.6572 5.02093 16.1052 4.90306 16.498 4.89844C17.1603 4.89096 17.8503 4.89551 18.4785 4.89551C18.7741 4.89551 19.3673 4.90225 19.8066 5.3252C19.9783 5.49051 20.0864 5.68085 20.1553 5.86914C21.5545 5.86762 22.9508 5.86795 24.3447 5.86426H24.3477L24.4551 5.86621C24.6149 5.87457 24.9122 5.91724 25.1738 6.12695C25.5974 6.46675 25.6117 6.94728 25.6055 7.13867L25.6064 7.13965C25.5931 7.55066 25.5951 7.96847 25.6064 8.39062C25.6093 8.49428 25.6269 8.93013 25.2959 9.28516C24.9535 9.65183 24.5053 9.65429 24.3809 9.6543H24.375C23.0077 9.64673 21.639 9.64611 20.2686 9.64453C20.2384 9.94155 20.1351 10.2814 19.8711 10.5664C19.8062 10.6364 19.7348 10.6948 19.6631 10.7471C21.1825 10.7458 22.7022 10.7453 24.2217 10.7412C24.3893 10.7399 24.8943 10.7383 25.2695 11.1396C25.6222 11.5172 25.6133 12.0007 25.6133 12.1367V12.1387C25.6042 16.8326 25.6079 21.5284 25.6084 26.2246C25.8647 26.2244 26.1215 26.2249 26.3779 26.2246C26.6349 26.2243 26.8922 26.2239 27.1494 26.2236C27.1539 21.5114 27.1595 16.8016 27.1572 12.0898C27.1572 12.0073 27.1598 11.8767 27.1865 11.7373C27.2142 11.5929 27.2788 11.3778 27.4473 11.1758C27.8102 10.7408 28.321 10.7367 28.5156 10.7432L28.5166 10.7422C29.146 10.7612 29.7698 10.7535 30.4277 10.75C30.4286 10.3833 30.4281 10.0191 30.4277 9.64648C29.7686 9.64556 29.1325 9.64083 28.4902 9.65137L28.4912 9.65234L28.4883 9.65137L28.4863 9.65234L28.4854 9.65137C28.4127 9.65286 28.2947 9.65443 28.166 9.63379C28.0305 9.61197 27.8174 9.55684 27.6123 9.39844C27.1473 9.0391 27.1453 8.51058 27.1562 8.30762V8.30176C27.1774 7.9465 27.174 7.57862 27.1582 7.19531L27.1572 7.04297C27.1651 6.84166 27.2185 6.5126 27.4805 6.23438C27.8405 5.85229 28.3139 5.8572 28.46 5.86035L29.4277 5.86914C29.6809 5.86895 29.9356 5.86582 30.1914 5.86328C30.257 5.10418 30.32 4.34927 30.375 3.59375V3.59082C30.3778 3.55176 30.3874 3.23259 30.5723 2.94238C30.8229 2.54922 31.2131 2.42889 31.4766 2.39844C31.92 2.34553 32.3349 2.27146 32.833 2.19629L32.835 2.19531C33.0249 2.16707 33.1327 2.11503 33.1982 2.06641C33.2598 2.02051 33.3345 1.94048 33.4053 1.77441C33.4459 1.67723 33.4851 1.57477 33.5312 1.45117C33.5717 1.34299 33.6185 1.21666 33.6709 1.08887C32.933 1.17388 32.2525 1.2458 31.5244 1.35937C30.1471 1.57308 28.6666 1.67439 27.3779 1.82617C26.4781 1.93453 25.5545 2.01886 24.625 2.03906H24.623C24.1144 2.04936 23.6055 2.08543 23.0586 2.12109C22.5219 2.15608 21.9533 2.18947 21.377 2.18555C19.0698 2.17135 16.536 2.30318 14.1201 2.19922C13.2495 2.16325 12.3891 2.13443 11.5098 2.10059C11.1424 2.08731 10.5492 2.09799 10.0361 2.0332C9.22924 1.93185 8.56761 1.92455 7.65234 1.83984H7.65039C7.3872 1.81501 7.10473 1.79065 6.81836 1.76562L5.95996 1.68457C5.41817 1.62595 4.8614 1.55025 4.3457 1.4873C3.67961 1.4053 3.06466 1.32033 2.43066 1.25391H2.42871C2.06639 1.21534 1.69014 1.13771 1.41699 1.08984C1.37706 1.08285 1.33764 1.07845 1.2998 1.07227ZM15.9941 6.12012C15.911 6.22927 15.8654 6.37554 15.8633 6.55859L15.8535 6.86719C15.0296 6.86719 14.2056 6.86816 13.3818 6.86816L10.9092 6.85938C10.6209 6.85691 10.5401 6.94388 10.5566 7.22559C10.5805 7.5917 10.5781 7.96299 10.5566 8.3291C10.5443 8.55277 10.5971 8.63607 10.7861 8.65332L10.876 8.65625C12.5357 8.64195 14.1933 8.64941 15.8535 8.64941C15.856 8.92411 15.8536 9.20089 15.8652 9.47559C15.8794 9.82488 16.0777 10.032 16.4248 10.0371C17.1965 10.047 17.9715 10.047 18.7432 10.0371C18.8722 10.0352 18.9761 10.0035 19.0586 9.94922C18.9765 10.0019 18.8721 10.0306 18.7441 10.0322C17.9724 10.0396 17.1975 10.0421 16.4258 10.0322C16.0782 10.0272 15.8804 9.82246 15.8662 9.4707C15.8545 9.19597 15.8564 8.91926 15.8545 8.64453C15.8564 8.05232 15.8569 7.45696 15.8545 6.86426C15.8569 6.76064 15.8643 6.65928 15.8643 6.55566C15.8664 6.37486 15.9118 6.22927 15.9941 6.12012ZM19.3008 6.87012C19.3008 7.4599 19.2988 8.04791 19.2988 8.6377C19.2988 8.63933 19.2979 8.64094 19.2979 8.64258L24.3809 8.6543C24.5182 8.65425 24.5797 8.62165 24.5996 8.53027L24.6074 8.41797C24.6016 8.19991 24.598 7.98125 24.5977 7.7627L24.6074 7.10742C24.6146 6.89804 24.5284 6.86429 24.3477 6.86426C22.6691 6.8687 20.9847 6.86765 19.3008 6.87012Z" fill="var(--fill-0, #A1824A)"/>
</g>
<defs>
<clipPath id="clip0_0_50">
<rect width="35" height="32" fill="white"/>
</clipPath>
</defs>
</svg>
